solid Created by Gmsh
facet normal 0.483157 -0.754257 0.444585
  outer loop
    vertex 0.0260648624118366 1.62794134955634e-05 -0.0151466183159516
    vertex 0.01696725085208257 1.580024601474297e-05 -0.005260523214988298
    vertex 0.01667298146411873 -0.005713462343436582 -0.01466065534457813
  endloop
endfacet
facet normal 0.596018 -0.742622 0.305409
  outer loop
    vertex 0.02421678925778697 -0.008316387253171121 -0.03118317973672589
    vertex 0.02392386548102712 -0.003593542123796378 -0.01912762564478647
    vertex 0.01892428648294343 -0.009180892222335247 -0.02295675714869875
  endloop
endfacet
facet normal -0.494018 -0.818436 0.293442
  outer loop
    vertex -0.0204127782848394 -0.01664946676033025 -0.04308353973363081
    vertex -0.009378396076070277 -0.01945864773225274 -0.03234188252945595
    vertex -0.01694554185340727 -0.01357803773542672 -0.02867983089569844
  endloop
endfacet
facet normal -0.610927 -0.645153 0.458854
  outer loop
    vertex -0.0204127782848394 -0.01664946676033025 -0.04308353973363081
    vertex -0.0117383340864128 -0.0249817205865044 -0.04324944752147645
    vertex -0.009378396076070277 -0.01945864773225274 -0.03234188252945595
  endloop
endfacet
facet normal 0.211743 -0.835054 0.507788
  outer loop
    vertex 0.002196348563335582 -0.01765459823823319 -0.02725730513567019
    vertex 5.422595739487902e-17 -0.0249817205865044 -0.0383908467803209
    vertex 0.01276793924647902 -0.01705645615457949 -0.03068192020826624
  endloop
endfacet
facet normal 0.210691 -0.834566 0.509028
  outer loop
    vertex 5.422595739487902e-17 -0.0249817205865044 -0.0383908467803209
    vertex 0.01173833408641283 -0.0249817205865044 -0.04324944752147648
    vertex 0.01276793924647902 -0.01705645615457949 -0.03068192020826624
  endloop
endfacet
facet normal -0.624962 -0.719123 0.303785
  outer loop
    vertex -0.02421641233836308 -0.008317212934156088 -0.03118435888075725
    vertex -0.0204127782848394 -0.01664946676033025 -0.04308353973363081
    vertex -0.01694554185340727 -0.01357803773542672 -0.02867983089569844
  endloop
endfacet
facet normal 0.663222 -0.695941 0.275322
  outer loop
    vertex 0.0166091442313157 -0.0249817205865044 -0.0549827205865044
    vertex 0.02041296674455137 -0.01664905391983778 -0.04308295016161515
    vertex 0.01173833408641283 -0.0249817205865044 -0.04324944752147648
  endloop
endfacet
facet normal -0.663222 -0.695941 0.275322
  outer loop
    vertex -0.0166091442313157 -0.0249817205865044 -0.0549827205865044
    vertex -0.0117383340864128 -0.0249817205865044 -0.04324944752147645
    vertex -0.0204127782848394 -0.01664946676033025 -0.04308353973363081
  endloop
endfacet
facet normal 0.581164 -0.742133 0.333897
  outer loop
    vertex 0.02041296674455137 -0.01664905391983778 -0.04308295016161515
    vertex 0.02421678925778697 -0.008316387253171121 -0.03118317973672589
    vertex 0.01276793924647902 -0.01705645615457949 -0.03068192020826624
  endloop
endfacet
facet normal 0.390001 -0.781909 0.486332
  outer loop
    vertex 0.01143299561638411 -0.01289346505750508 -0.02291827195540671
    vertex 0.01276793924647902 -0.01705645615457949 -0.03068192020826624
    vertex 0.01892428648294343 -0.009180892222335247 -0.02295675714869875
  endloop
endfacet
facet normal -0.127842 -0.821238 0.55608
  outer loop
    vertex -0.007167885307816085 -0.01335369069381951 -0.02170895463497278
    vertex -0.0003253846549542607 -0.00656872040570986 -0.01011559650679003
    vertex -0.01170454004173296 -0.005406122447625067 -0.01101469064427881
  endloop
endfacet
facet normal -0.579446 -0.742965 0.335029
  outer loop
    vertex -0.0280200463918868 1.50408920180622e-05 -0.0192851780278837
    vertex -0.02421641233836308 -0.008317212934156088 -0.03118435888075725
    vertex -0.01861317700970455 -0.007202663777754284 -0.01902170805111923
  endloop
endfacet
facet normal 0.587306 -0.752191 0.298799
  outer loop
    vertex 0.01276793924647902 -0.01705645615457949 -0.03068192020826624
    vertex 0.02421678925778697 -0.008316387253171121 -0.03118317973672589
    vertex 0.01892428648294343 -0.009180892222335247 -0.02295675714869875
  endloop
endfacet
facet normal -0.197227 -0.856768 0.476498
  outer loop
    vertex -0.0117383340864128 -0.0249817205865044 -0.04324944752147645
    vertex 5.422595739487902e-17 -0.0249817205865044 -0.0383908467803209
    vertex -0.009378396076070277 -0.01945864773225274 -0.03234188252945595
  endloop
endfacet
facet normal -0.0438675 -0.818661 0.572599
  outer loop
    vertex 0.004467852511393 1.550456444305941e-05 -0.0003347337324455987
    vertex -0.008927873463151478 1.529558637841402e-05 -0.001361295413942558
    vertex -0.0003253846549542607 -0.00656872040570986 -0.01011559650679003
  endloop
endfacet
facet normal 0.20657 -0.847054 0.489723
  outer loop
    vertex 0.002196348563335582 -0.01765459823823319 -0.02725730513567019
    vertex 0.01276793924647902 -0.01705645615457949 -0.03068192020826624
    vertex 0.01143299561638411 -0.01289346505750508 -0.02291827195540671
  endloop
endfacet
facet normal -0.119384 -0.818381 0.562138
  outer loop
    vertex -0.009378396076070277 -0.01945864773225274 -0.03234188252945595
    vertex 5.422595739487902e-17 -0.0249817205865044 -0.0383908467803209
    vertex 0.002196348563335582 -0.01765459823823319 -0.02725730513567019
  endloop
endfacet
facet normal -0.569262 -0.727975 0.38209
  outer loop
    vertex -0.02053275433715792 1.513957253775339e-05 -0.008129945135248465
    vertex -0.0280200463918868 1.50408920180622e-05 -0.0192851780278837
    vertex -0.01861317700970455 -0.007202663777754284 -0.01902170805111923
  endloop
endfacet
facet normal -0.0907049 -0.855389 0.509983
  outer loop
    vertex -0.009378396076070277 -0.01945864773225274 -0.03234188252945595
    vertex 0.002196348563335582 -0.01765459823823319 -0.02725730513567019
    vertex -0.007167885307816085 -0.01335369069381951 -0.02170895463497278
  endloop
endfacet
facet normal -0.0444256 -0.850556 0.524005
  outer loop
    vertex -0.0003253846549542607 -0.00656872040570986 -0.01011559650679003
    vertex -0.007167885307816085 -0.01335369069381951 -0.02170895463497278
    vertex 0.003049246788712835 -0.01211109758270816 -0.01882578233940919
  endloop
endfacet
facet normal 0.493141 -0.746921 0.446006
  outer loop
    vertex 0.02392386548102712 -0.003593542123796378 -0.01912762564478647
    vertex 0.01667298146411873 -0.005713462343436582 -0.01466065534457813
    vertex 0.01892428648294343 -0.009180892222335247 -0.02295675714869875
  endloop
endfacet
facet normal 0.639305 -0.672975 0.372012
  outer loop
    vertex 0.01173833408641283 -0.0249817205865044 -0.04324944752147648
    vertex 0.02041296674455137 -0.01664905391983778 -0.04308295016161515
    vertex 0.01276793924647902 -0.01705645615457949 -0.03068192020826624
  endloop
endfacet
facet normal -0.33024 -0.819272 0.468759
  outer loop
    vertex -0.01861317700970455 -0.007202663777754284 -0.01902170805111923
    vertex -0.007167885307816085 -0.01335369069381951 -0.02170895463497278
    vertex -0.01170454004173296 -0.005406122447625067 -0.01101469064427881
  endloop
endfacet
facet normal -0.625237 -0.696608 0.351877
  outer loop
    vertex -0.01861317700970455 -0.007202663777754284 -0.01902170805111923
    vertex -0.02421641233836308 -0.008317212934156088 -0.03118435888075725
    vertex -0.01694554185340727 -0.01357803773542672 -0.02867983089569844
  endloop
endfacet
facet normal 0.271518 -0.804935 0.527596
  outer loop
    vertex 0.01143299561638411 -0.01289346505750508 -0.02291827195540671
    vertex 0.01667298146411873 -0.005713462343436582 -0.01466065534457813
    vertex 0.007695234184180424 -0.00858731436951001 -0.01442495753117398
  endloop
endfacet
facet normal 0.399769 -0.802061 0.443714
  outer loop
    vertex 0.01667298146411873 -0.005713462343436582 -0.01466065534457813
    vertex 0.01143299561638411 -0.01289346505750508 -0.02291827195540671
    vertex 0.01892428648294343 -0.009180892222335247 -0.02295675714869875
  endloop
endfacet
facet normal -0.0547241 -0.831777 0.552407
  outer loop
    vertex -0.007167885307816085 -0.01335369069381951 -0.02170895463497278
    vertex 0.002196348563335582 -0.01765459823823319 -0.02725730513567019
    vertex 0.003049246788712835 -0.01211109758270816 -0.01882578233940919
  endloop
endfacet
facet normal 0.180077 -0.830183 0.527607
  outer loop
    vertex 0.002196348563335582 -0.01765459823823319 -0.02725730513567019
    vertex 0.01143299561638411 -0.01289346505750508 -0.02291827195540671
    vertex 0.003049246788712835 -0.01211109758270816 -0.01882578233940919
  endloop
endfacet
facet normal -0.127269 -0.84874 0.513266
  outer loop
    vertex -0.0003253846549542607 -0.00656872040570986 -0.01011559650679003
    vertex -0.008927873463151478 1.529558637841402e-05 -0.001361295413942558
    vertex -0.01170454004173296 -0.005406122447625067 -0.01101469064427881
  endloop
endfacet
facet normal 0.0930422 -0.846478 0.524231
  outer loop
    vertex 0.004467852511393 1.550456444305941e-05 -0.0003347337324455987
    vertex -0.0003253846549542607 -0.00656872040570986 -0.01011559650679003
    vertex 0.008878335743228067 -0.004689216558919762 -0.008714257826854152
  endloop
endfacet
facet normal 0.222129 -0.795611 0.563615
  outer loop
    vertex 0.01696725085208257 1.580024601474297e-05 -0.005260523214988298
    vertex 0.004467852511393 1.550456444305941e-05 -0.0003347337324455987
    vertex 0.008878335743228067 -0.004689216558919762 -0.008714257826854152
  endloop
endfacet
facet normal -0.310156 -0.788042 0.531782
  outer loop
    vertex -0.008927873463151478 1.529558637841402e-05 -0.001361295413942558
    vertex -0.02053275433715792 1.513957253775339e-05 -0.008129945135248465
    vertex -0.01170454004173296 -0.005406122447625067 -0.01101469064427881
  endloop
endfacet
facet normal -0.324539 -0.814194 0.481417
  outer loop
    vertex -0.007167885307816085 -0.01335369069381951 -0.02170895463497278
    vertex -0.01861317700970455 -0.007202663777754284 -0.01902170805111923
    vertex -0.01694554185340727 -0.01357803773542672 -0.02867983089569844
  endloop
endfacet
facet normal 0.0860555 -0.831076 0.54946
  outer loop
    vertex 0.008878335743228067 -0.004689216558919762 -0.008714257826854152
    vertex -0.0003253846549542607 -0.00656872040570986 -0.01011559650679003
    vertex 0.007695234184180424 -0.00858731436951001 -0.01442495753117398
  endloop
endfacet
facet normal 0.269134 -0.826113 0.49508
  outer loop
    vertex 0.01667298146411873 -0.005713462343436582 -0.01466065534457813
    vertex 0.01696725085208257 1.580024601474297e-05 -0.005260523214988298
    vertex 0.008878335743228067 -0.004689216558919762 -0.008714257826854152
  endloop
endfacet
facet normal -0.341694 -0.810018 0.476566
  outer loop
    vertex -0.02053275433715792 1.513957253775339e-05 -0.008129945135248465
    vertex -0.01861317700970455 -0.007202663777754284 -0.01902170805111923
    vertex -0.01170454004173296 -0.005406122447625067 -0.01101469064427881
  endloop
endfacet
facet normal -0.352869 -0.777882 0.519984
  outer loop
    vertex -0.009378396076070277 -0.01945864773225274 -0.03234188252945595
    vertex -0.007167885307816085 -0.01335369069381951 -0.02170895463497278
    vertex -0.01694554185340727 -0.01357803773542672 -0.02867983089569844
  endloop
endfacet
facet normal 0.641669 -0.716402 0.273913
  outer loop
    vertex 0.0280206117710226 1.62794134955634e-05 -0.0192834093118366
    vertex 0.02712172356860994 1.62794134955634e-05 -0.01717767140228001
    vertex 0.02392386548102712 -0.003593542123796378 -0.01912762564478647
  endloop
endfacet
facet normal 0.0937673 -0.823113 0.560083
  outer loop
    vertex -0.0003253846549542607 -0.00656872040570986 -0.01011559650679003
    vertex 0.003049246788712835 -0.01211109758270816 -0.01882578233940919
    vertex 0.007695234184180424 -0.00858731436951001 -0.01442495753117398
  endloop
endfacet
facet normal 0.275543 -0.819581 0.502357
  outer loop
    vertex 0.01667298146411873 -0.005713462343436582 -0.01466065534457813
    vertex 0.008878335743228067 -0.004689216558919762 -0.008714257826854152
    vertex 0.007695234184180424 -0.00858731436951001 -0.01442495753117398
  endloop
endfacet
facet normal 0.166504 -0.847976 0.503203
  outer loop
    vertex 0.003049246788712835 -0.01211109758270816 -0.01882578233940919
    vertex 0.01143299561638411 -0.01289346505750508 -0.02291827195540671
    vertex 0.007695234184180424 -0.00858731436951001 -0.01442495753117398
  endloop
endfacet
facet normal 0.616326 -0.719228 0.320706
  outer loop
    vertex 0.02712172356860994 1.62794134955634e-05 -0.01717767140228001
    vertex 0.0260648624118366 1.62794134955634e-05 -0.0151466183159516
    vertex 0.02392386548102712 -0.003593542123796378 -0.01912762564478647
  endloop
endfacet
facet normal 0.486605 -0.761267 0.428589
  outer loop
    vertex 0.0260648624118366 1.62794134955634e-05 -0.0151466183159516
    vertex 0.01667298146411873 -0.005713462343436582 -0.01466065534457813
    vertex 0.02392386548102712 -0.003593542123796378 -0.01912762564478647
  endloop
endfacet
facet normal 0.638119 -0.711497 0.294239
  outer loop
    vertex 0.02421678925778697 -0.008316387253171121 -0.03118317973672589
    vertex 0.0280206117710226 1.62794134955634e-05 -0.0192834093118366
    vertex 0.02392386548102712 -0.003593542123796378 -0.01912762564478647
  endloop
endfacet
facet normal -0.881516 -0.472154 -1.23505e-16
  outer loop
    vertex -0.0166091442313157 -0.0249817205865044 -0.1213006866017841
    vertex -0.0166091442313157 -0.0249817205865044 -0.1080370933987282
    vertex -0.0238327137106638 -0.01149525764886063 -0.108989389073341
  endloop
endfacet
facet normal -0.881506 -0.472172 2.56517e-05
  outer loop
    vertex -0.0166091442313157 -0.0249817205865044 -0.1213006866017841
    vertex -0.0238327137106638 -0.01149525764886063 -0.108989389073341
    vertex -0.02530536528966119 -0.008746601028056545 -0.1211287645688543
  endloop
endfacet
facet normal -0.881506 -0.472172 1.86945e-05
  outer loop
    vertex -0.02170735166669796 -0.01546413179231558 -0.1297712359084326
    vertex -0.0166091442313157 -0.0249817205865044 -0.1213006866017841
    vertex -0.02530536528966119 -0.008746601028056545 -0.1211287645688543
  endloop
endfacet
facet normal -0.881514 -0.472159 -2.31334e-06
  outer loop
    vertex -0.02203263159976638 -0.01485611130822527 -0.0616145171880324
    vertex -0.0166091442313157 -0.0249817205865044 -0.0549827205865044
    vertex -0.02493574864833763 -0.009436081441394276 -0.05141315294107481
  endloop
endfacet
facet normal -0.874465 -0.481641 0.0577359
  outer loop
    vertex -0.0166091442313157 -0.0249817205865044 -0.0549827205865044
    vertex -0.0204127782848394 -0.01664946676033025 -0.04308353973363081
    vertex -0.02493574864833763 -0.009436081441394276 -0.05141315294107481
  endloop
endfacet
facet normal -0.80802 -0.586818 0.0524195
  outer loop
    vertex -0.02421641233836308 -0.008317212934156088 -0.03118435888075725
    vertex -0.02919284056740093 -0.001271297053813394 -0.02901686855064714
    vertex -0.02869650270118834 -0.002416679483729745 -0.03418823225732092
  endloop
endfacet
facet normal -0.881485 -0.472212 2.55484e-05
  outer loop
    vertex -0.03 1.62794134955634e-05 -0.1331886095643492
    vertex -0.02498742154983114 -0.009340999324163213 -0.1375559418027909
    vertex -0.02530536528966119 -0.008746601028056545 -0.1211287645688543
  endloop
endfacet
facet normal -0.881486 -0.47221 -0.000144135
  outer loop
    vertex -0.02203263159976638 -0.01485611130822527 -0.0616145171880324
    vertex -0.03 1.62794134955634e-05 -0.05999229234661477
    vertex -0.02561883159661641 -0.008159122474754305 -0.06993468090425405
  endloop
endfacet
facet normal -0.881438 -0.4723 2.7486e-05
  outer loop
    vertex -0.0249519190497775 -0.009404397615244286 -0.08275451594582429
    vertex -0.03 1.62794134955634e-05 -0.08927081923370864
    vertex -0.02463202139068051 -0.01000216122391779 -0.09563921900895772
  endloop
endfacet
facet normal -0.881503 -0.472178 2.3931e-05
  outer loop
    vertex -0.02498742154983114 -0.009340999324163213 -0.1375559418027909
    vertex -0.02170735166669796 -0.01546413179231558 -0.1297712359084326
    vertex -0.02530536528966119 -0.008746601028056545 -0.1211287645688543
  endloop
endfacet
facet normal -0.881478 -0.472226 4.36873e-05
  outer loop
    vertex -0.03 1.62794134955634e-05 -0.05999229234661477
    vertex -0.02203263159976638 -0.01485611130822527 -0.0616145171880324
    vertex -0.02493574864833763 -0.009436081441394276 -0.05141315294107481
  endloop
endfacet
facet normal -0.88146 -0.472259 4.27956e-05
  outer loop
    vertex -0.03 1.62794134955634e-05 -0.1039100826772555
    vertex -0.0238327137106638 -0.01149525764886063 -0.108989389073341
    vertex -0.02463202139068051 -0.01000216122391779 -0.09563921900895772
  endloop
endfacet
facet normal -0.881516 -0.472155 -4.09928e-06
  outer loop
    vertex -0.0238327137106638 -0.01149525764886063 -0.108989389073341
    vertex -0.0166091442313157 -0.0249817205865044 -0.1080370933987282
    vertex -0.02007000819351048 -0.01852033264518051 -0.1000611348496972
  endloop
endfacet
facet normal -0.881467 -0.472245 -0
  outer loop
    vertex -0.03 1.62794134955634e-05 -0.1039100826772555
    vertex -0.03 1.62794134955634e-05 -0.1185493461208023
    vertex -0.0238327137106638 -0.01149525764886063 -0.108989389073341
  endloop
endfacet
facet normal -0.88143 -0.472315 -0
  outer loop
    vertex -0.03 1.62794134955634e-05 -0.0746315557901617
    vertex -0.03 1.62794134955634e-05 -0.08927081923370864
    vertex -0.0249519190497775 -0.009404397615244286 -0.08275451594582429
  endloop
endfacet
facet normal -0.881445 -0.472287 -0
  outer loop
    vertex -0.03 1.62794134955634e-05 -0.08927081923370864
    vertex -0.03 1.62794134955634e-05 -0.1039100826772555
    vertex -0.02463202139068051 -0.01000216122391779 -0.09563921900895772
  endloop
endfacet
facet normal -0.852937 -0.513226 0.0953796
  outer loop
    vertex -0.02942355792638189 1.500853335932763e-05 -0.02415861742541404
    vertex -0.02998851710207648 1.72794134955634e-05 -0.02919857343845938
    vertex -0.02919284056740093 -0.001271297053813394 -0.02901686855064714
  endloop
endfacet
facet normal -0.881499 -0.472185 1.23513e-16
  outer loop
    vertex -0.0166091442313157 -0.0249817205865044 -0.1345642798048401
    vertex -0.0166091442313157 -0.0249817205865044 -0.1213006866017841
    vertex -0.02170735166669796 -0.01546413179231558 -0.1297712359084326
  endloop
endfacet
facet normal -0.881514 -0.472157 0
  outer loop
    vertex -0.0166091442313157 -0.0249817205865044 -0.06824631378956042
    vertex -0.0166091442313157 -0.0249817205865044 -0.0549827205865044
    vertex -0.02203263159976638 -0.01485611130822527 -0.0616145171880324
  endloop
endfacet
facet normal -0.843611 -0.527602 0.0997823
  outer loop
    vertex -0.0204127782848394 -0.01664946676033025 -0.04308353973363081
    vertex -0.02421641233836308 -0.008317212934156088 -0.03118435888075725
    vertex -0.02556557616369357 -0.008261469916021957 -0.04229614068452818
  endloop
endfacet
facet normal -0.881524 -0.47214 1.23501e-16
  outer loop
    vertex -0.0166091442313157 -0.02498172058650441 -0.0815099069926164
    vertex -0.0166091442313157 -0.0249817205865044 -0.06824631378956042
    vertex -0.02189068095549891 -0.01512065337581517 -0.07487811039108841
  endloop
endfacet
facet normal -0.881519 -0.472149 -1.72662e-05
  outer loop
    vertex -0.0166091442313157 -0.0249817205865044 -0.06824631378956042
    vertex -0.02203263159976638 -0.01485611130822527 -0.0616145171880324
    vertex -0.02189068095549891 -0.01512065337581517 -0.07487811039108841
  endloop
endfacet
facet normal -0.88147 -0.47224 -0
  outer loop
    vertex -0.03 1.62794134955634e-05 -0.1185493461208023
    vertex -0.03 1.62794134955634e-05 -0.1331886095643492
    vertex -0.02530536528966119 -0.008746601028056545 -0.1211287645688543
  endloop
endfacet
facet normal -0.88149 -0.472203 -0
  outer loop
    vertex -0.03 1.62794134955634e-05 -0.1331886095643492
    vertex -0.03 1.62794134955634e-05 -0.147827873007896
    vertex -0.02498742154983114 -0.009340999324163213 -0.1375559418027909
  endloop
endfacet
facet normal -0.881494 -0.472196 8.466e-06
  outer loop
    vertex -0.03 1.62794134955634e-05 -0.147827873007896
    vertex -0.02330457211565787 -0.01248272058650439 -0.147827873007896
    vertex -0.02498742154983114 -0.009340999324163213 -0.1375559418027909
  endloop
endfacet
facet normal -0.88142 -0.472334 2.77355e-05
  outer loop
    vertex -0.03 1.62794134955634e-05 -0.0746315557901617
    vertex -0.0249519190497775 -0.009404397615244286 -0.08275451594582429
    vertex -0.02561883159661641 -0.008159122474754305 -0.06993468090425405
  endloop
endfacet
facet normal -0.881461 -0.472257 -0
  outer loop
    vertex -0.03 1.62794134955634e-05 -0.04535302890306783
    vertex -0.03 1.62794134955634e-05 -0.05999229234661477
    vertex -0.02493574864833763 -0.009436081441394276 -0.05141315294107481
  endloop
endfacet
facet normal -0.881539 -0.472111 1.6166e-05
  outer loop
    vertex -0.0249519190497775 -0.009404397615244286 -0.08275451594582429
    vertex -0.02463202139068051 -0.01000216122391779 -0.09563921900895772
    vertex -0.02041384642962731 -0.01787821732348153 -0.08847059243520912
  endloop
endfacet
facet normal -0.881497 -0.472189 8.5732e-06
  outer loop
    vertex -0.0166091442313157 -0.0249817205865044 -0.1345642798048401
    vertex -0.02170735166669796 -0.01546413179231558 -0.1297712359084326
    vertex -0.02016793673512568 -0.01833815469359311 -0.1403647979574033
  endloop
endfacet
facet normal -0.881531 -0.472127 2.37487e-05
  outer loop
    vertex -0.02463202139068051 -0.01000216122391779 -0.09563921900895772
    vertex -0.0238327137106638 -0.01149525764886063 -0.108989389073341
    vertex -0.02007000819351048 -0.01852033264518051 -0.1000611348496972
  endloop
endfacet
facet normal -0.881522 -0.472144 7.69761e-06
  outer loop
    vertex -0.0166091442313157 -0.02498172058650441 -0.0815099069926164
    vertex -0.02189068095549891 -0.01512065337581517 -0.07487811039108841
    vertex -0.02041384642962731 -0.01787821732348153 -0.08847059243520912
  endloop
endfacet
facet normal -0.815724 -0.570389 0.0961817
  outer loop
    vertex -0.02556557616369357 -0.008261469916021957 -0.04229614068452818
    vertex -0.02421641233836308 -0.008317212934156088 -0.03118435888075725
    vertex -0.02869650270118834 -0.002416679483729745 -0.03418823225732092
  endloop
endfacet
facet normal -0.881413 -0.472346 -0
  outer loop
    vertex -0.03 1.62794134955634e-05 -0.05999229234661477
    vertex -0.03 1.62794134955634e-05 -0.0746315557901617
    vertex -0.02561883159661641 -0.008159122474754305 -0.06993468090425405
  endloop
endfacet
facet normal -0.881494 -0.472196 1.59538e-06
  outer loop
    vertex -0.02330457211565787 -0.01248272058650439 -0.147827873007896
    vertex -0.0166091442313157 -0.0249817205865044 -0.147827873007896
    vertex -0.02016793673512568 -0.01833815469359311 -0.1403647979574033
  endloop
endfacet
facet normal -0.881496 -0.472192 9.64372e-06
  outer loop
    vertex -0.02170735166669796 -0.01546413179231558 -0.1297712359084326
    vertex -0.02498742154983114 -0.009340999324163213 -0.1375559418027909
    vertex -0.02016793673512568 -0.01833815469359311 -0.1403647979574033
  endloop
endfacet
facet normal -0.881469 -0.472241 5.67837e-06
  outer loop
    vertex -0.0238327137106638 -0.01149525764886063 -0.108989389073341
    vertex -0.03 1.62794134955634e-05 -0.1185493461208023
    vertex -0.02530536528966119 -0.008746601028056545 -0.1211287645688543
  endloop
endfacet
facet normal -0.881546 -0.472098 -1.68681e-06
  outer loop
    vertex -0.0249519190497775 -0.009404397615244286 -0.08275451594582429
    vertex -0.02189068095549891 -0.01512065337581517 -0.07487811039108841
    vertex -0.02561883159661641 -0.008159122474754305 -0.06993468090425405
  endloop
endfacet
facet normal -0.881535 -0.472119 4.27972e-06
  outer loop
    vertex -0.02041384642962731 -0.01787821732348153 -0.08847059243520912
    vertex -0.02463202139068051 -0.01000216122391779 -0.09563921900895772
    vertex -0.02007000819351048 -0.01852033264518051 -0.1000611348496972
  endloop
endfacet
facet normal -0.881519 -0.472149 -1.23503e-16
  outer loop
    vertex -0.0166091442313157 -0.0249817205865044 -0.09477350019567234
    vertex -0.0166091442313157 -0.02498172058650441 -0.0815099069926164
    vertex -0.02041384642962731 -0.01787821732348153 -0.08847059243520912
  endloop
endfacet
facet normal -0.881545 -0.4721 -3.58285e-06
  outer loop
    vertex -0.02189068095549891 -0.01512065337581517 -0.07487811039108841
    vertex -0.0249519190497775 -0.009404397615244286 -0.08275451594582429
    vertex -0.02041384642962731 -0.01787821732348153 -0.08847059243520912
  endloop
endfacet
facet normal -0.881514 -0.472158 0
  outer loop
    vertex -0.0166091442313157 -0.0249817205865044 -0.1080370933987282
    vertex -0.0166091442313157 -0.0249817205865044 -0.09477350019567234
    vertex -0.02007000819351048 -0.01852033264518051 -0.1000611348496972
  endloop
endfacet
facet normal -0.881494 -0.472195 0
  outer loop
    vertex -0.0166091442313157 -0.0249817205865044 -0.147827873007896
    vertex -0.0166091442313157 -0.0249817205865044 -0.1345642798048401
    vertex -0.02016793673512568 -0.01833815469359311 -0.1403647979574033
  endloop
endfacet
facet normal -0.881516 -0.472154 6.77348e-06
  outer loop
    vertex -0.0166091442313157 -0.0249817205865044 -0.09477350019567234
    vertex -0.02041384642962731 -0.01787821732348153 -0.08847059243520912
    vertex -0.02007000819351048 -0.01852033264518051 -0.1000611348496972
  endloop
endfacet
facet normal -0.881551 -0.472089 -1.87987e-05
  outer loop
    vertex -0.02189068095549891 -0.01512065337581517 -0.07487811039108841
    vertex -0.02203263159976638 -0.01485611130822527 -0.0616145171880324
    vertex -0.02561883159661641 -0.008159122474754305 -0.06993468090425405
  endloop
endfacet
facet normal -0.881486 -0.472211 1.29965e-05
  outer loop
    vertex -0.03 1.62794134955634e-05 -0.04535302890306783
    vertex -0.02556557616369357 -0.008261469916021957 -0.04229614068452818
    vertex -0.02869650270118834 -0.002416679483729745 -0.03418823225732092
  endloop
endfacet
facet normal -0.881496 -0.472191 6.5389e-06
  outer loop
    vertex -0.02498742154983114 -0.009340999324163213 -0.1375559418027909
    vertex -0.02330457211565787 -0.01248272058650439 -0.147827873007896
    vertex -0.02016793673512568 -0.01833815469359311 -0.1403647979574033
  endloop
endfacet
facet normal -0.881475 -0.47223 -5.38408e-05
  outer loop
    vertex -0.03 1.62794134955634e-05 -0.04535302890306783
    vertex -0.02493574864833763 -0.009436081441394276 -0.05141315294107481
    vertex -0.02556557616369357 -0.008261469916021957 -0.04229614068452818
  endloop
endfacet
facet normal -0.851673 -0.524002 0.00867521
  outer loop
    vertex -0.02493574864833763 -0.009436081441394276 -0.05141315294107481
    vertex -0.0204127782848394 -0.01664946676033025 -0.04308353973363081
    vertex -0.02556557616369357 -0.008261469916021957 -0.04229614068452818
  endloop
endfacet
facet normal -0.609878 -0.772785 0.175645
  outer loop
    vertex -0.0280200463918868 1.50408920180622e-05 -0.0192851780278837
    vertex -0.02942355792638189 1.500853335932763e-05 -0.02415861742541404
    vertex -0.02919284056740093 -0.001271297053813394 -0.02901686855064714
  endloop
endfacet
facet normal -0.851935 -0.523276 0.0197238
  outer loop
    vertex -0.02998851710207648 1.72794134955634e-05 -0.02919857343845938
    vertex -0.02999857193331179 1.872941960404675e-05 -0.02959440568241698
    vertex -0.02919284056740093 -0.001271297053813394 -0.02901686855064714
  endloop
endfacet
facet normal -0.778471 -0.603211 0.173548
  outer loop
    vertex -0.02421641233836308 -0.008317212934156088 -0.03118435888075725
    vertex -0.0280200463918868 1.50408920180622e-05 -0.0192851780278837
    vertex -0.02919284056740093 -0.001271297053813394 -0.02901686855064714
  endloop
endfacet
facet normal -0.881461 -0.472257 -0
  outer loop
    vertex -0.03 1.62794134955634e-05 -0.0307137654595209
    vertex -0.03 1.62794134955634e-05 -0.04535302890306783
    vertex -0.02869650270118834 -0.002416679483729745 -0.03418823225732092
  endloop
endfacet
facet normal -0.881494 -0.472196 -5.50464e-05
  outer loop
    vertex -0.0299956397456173 8.139706747781481e-06 -0.03071376545936475
    vertex -0.03 1.62794134955634e-05 -0.0307137654595209
    vertex -0.02869650270118834 -0.002416679483729745 -0.03418823225732092
  endloop
endfacet
facet normal -0.881494 -0.472196 -5.50464e-05
  outer loop
    vertex -0.0299912794912346 4.88168161742013e-19 -0.0307137654592086
    vertex -0.0299956397456173 8.139706747781481e-06 -0.03071376545936475
    vertex -0.02869650270118834 -0.002416679483729745 -0.03418823225732092
  endloop
endfacet
facet normal -0.846835 -0.531855 5.03186e-15
  outer loop
    vertex -0.0299912794912346 5.855188257516639e-19 -0.03070347572079575
    vertex -0.0299912794912346 4.88168161742013e-19 -0.0307137654592086
    vertex -0.02919284056740093 -0.001271297053813394 -0.02901686855064714
  endloop
endfacet
facet normal -0.863314 -0.503849 0.028736
  outer loop
    vertex -0.02919284056740093 -0.001271297053813394 -0.02901686855064714
    vertex -0.0299912794912346 4.88168161742013e-19 -0.0307137654592086
    vertex -0.02869650270118834 -0.002416679483729745 -0.03418823225732092
  endloop
endfacet
facet normal -0.846835 -0.531855 4.92897e-15
  outer loop
    vertex -0.0299912794912346 6.80878964320895e-19 -0.0306931859823829
    vertex -0.0299912794912346 5.855188257516639e-19 -0.03070347572079575
    vertex -0.02919284056740093 -0.001271297053813394 -0.02901686855064714
  endloop
endfacet
facet normal -0.848454 -0.529262 0.00273772
  outer loop
    vertex -0.02999738034274496 1.159746572605464e-05 -0.03034186927491261
    vertex -0.0299912794912346 6.80878964320895e-19 -0.0306931859823829
    vertex -0.02919284056740093 -0.001271297053813394 -0.02901686855064714
  endloop
endfacet
facet normal -0.848374 -0.529391 0.00256438
  outer loop
    vertex -0.02999986344454833 1.727944127597625e-05 -0.02999036599996418
    vertex -0.02999738034274496 1.159746572605464e-05 -0.03034186927491261
    vertex -0.02919284056740093 -0.001271297053813394 -0.02901686855064714
  endloop
endfacet
facet normal -0.849092 -0.528224 0.00470382
  outer loop
    vertex -0.02999857193331179 1.872941960404675e-05 -0.02959440568241698
    vertex -0.02999986344454833 1.727944127597625e-05 -0.02999036599996418
    vertex -0.02919284056740093 -0.001271297053813394 -0.02901686855064714
  endloop
endfacet
facet normal 0.881489 -0.472205 0
  outer loop
    vertex 0.03 1.62794134955634e-05 -0.1331886096580991
    vertex 0.03 1.62794134955634e-05 -0.1185493463083022
    vertex 0.02203292545221993 -0.01485626870721127 -0.127932483203312
  endloop
endfacet
facet normal 0.881481 -0.472219 2.96646e-05
  outer loop
    vertex 0.02203292545221993 -0.01485626870721127 -0.127932483203312
    vertex 0.03 1.62794134955634e-05 -0.1185493463083022
    vertex 0.02318776935262544 -0.01269957630617171 -0.1124708232186736
  endloop
endfacet
facet normal 0.881524 -0.47214 1.23501e-16
  outer loop
    vertex 0.0166091442313157 -0.0249817205865044 -0.09477350019567217
    vertex 0.0166091442313157 -0.02498172058650441 -0.1080370933987281
    vertex 0.02315357651477654 -0.01276272097130212 -0.09688430988209906
  endloop
endfacet
facet normal 0.881516 -0.472154 2.10113e-05
  outer loop
    vertex 0.0166091442313157 -0.02498172058650441 -0.1080370933987281
    vertex 0.02318776935262544 -0.01269957630617171 -0.1124708232186736
    vertex 0.02315357651477654 -0.01276272097130212 -0.09688430988209906
  endloop
endfacet
facet normal 0.881514 -0.472159 -2.31361e-06
  outer loop
    vertex 0.0166091442313157 -0.0249817205865044 -0.0549827205865044
    vertex 0.02203263159976629 -0.01485611130822543 -0.06161451718803237
    vertex 0.02493574731318354 -0.009436083942189475 -0.05141309497716398
  endloop
endfacet
facet normal 0.881506 -0.472172 2.12118e-05
  outer loop
    vertex 0.0166091442313157 -0.0249817205865044 -0.121300686601784
    vertex 0.02203292545221993 -0.01485626870721127 -0.127932483203312
    vertex 0.02318776935262544 -0.01269957630617171 -0.1124708232186736
  endloop
endfacet
facet normal 0.881513 -0.47216 -2.47012e-16
  outer loop
    vertex 0.0166091442313157 -0.02498172058650441 -0.1080370933987281
    vertex 0.0166091442313157 -0.0249817205865044 -0.121300686601784
    vertex 0.02318776935262544 -0.01269957630617171 -0.1124708232186736
  endloop
endfacet
facet normal 0.881469 -0.472241 2.05587e-05
  outer loop
    vertex 0.02318776935262544 -0.01269957630617171 -0.1124708232186736
    vertex 0.03 1.62794134955634e-05 -0.1039100829585054
    vertex 0.02315357651477654 -0.01276272097130212 -0.09688430988209906
  endloop
endfacet
facet normal 0.874465 -0.481641 0.057736
  outer loop
    vertex 0.02041296674455137 -0.01664905391983778 -0.04308295016161515
    vertex 0.0166091442313157 -0.0249817205865044 -0.0549827205865044
    vertex 0.02493574731318354 -0.009436083942189475 -0.05141309497716398
  endloop
endfacet
facet normal 0.881489 -0.472204 3.8087e-06
  outer loop
    vertex 0.03 1.62794134955634e-05 -0.1331886096580991
    vertex 0.02203292545221993 -0.01485626870721127 -0.127932483203312
    vertex 0.02493481932137677 -0.00943922230898326 -0.1383082004404912
  endloop
endfacet
facet normal 0.881475 -0.47223 0
  outer loop
    vertex 0.03 1.62794134955634e-05 -0.1185493463083022
    vertex 0.03 1.62794134955634e-05 -0.1039100829585054
    vertex 0.02318776935262544 -0.01269957630617171 -0.1124708232186736
  endloop
endfacet
facet normal 0.881451 -0.472276 5.61104e-05
  outer loop
    vertex 0.02315357651477654 -0.01276272097130212 -0.09688430988209906
    vertex 0.03 1.62794134955634e-05 -0.08927081960870856
    vertex 0.0246390057991889 -0.00998868907763757 -0.08306679542850111
  endloop
endfacet
facet normal 0.881465 -0.47225 0
  outer loop
    vertex 0.03 1.62794134955634e-05 -0.1039100829585054
    vertex 0.03 1.62794134955634e-05 -0.08927081960870856
    vertex 0.02315357651477654 -0.01276272097130212 -0.09688430988209906
  endloop
endfacet
facet normal 0.881436 -0.472303 4.17794e-16
  outer loop
    vertex 0.03 1.62794134955634e-05 -0.08927081960870856
    vertex 0.02999999999999999 1.62794134955634e-05 -0.07463155625891169
    vertex 0.0246390057991889 -0.00998868907763757 -0.08306679542850111
  endloop
endfacet
facet normal 0.881486 -0.472209 -0.000151263
  outer loop
    vertex 0.03 1.62794134955634e-05 -0.05999229290911487
    vertex 0.02203263159976629 -0.01485611130822543 -0.06161451718803237
    vertex 0.02587157775504914 -0.007687175374485164 -0.06994130413101156
  endloop
endfacet
facet normal 0.881478 -0.472226 4.36866e-05
  outer loop
    vertex 0.02203263159976629 -0.01485611130822543 -0.06161451718803237
    vertex 0.03 1.62794134955634e-05 -0.05999229290911487
    vertex 0.02493574731318354 -0.009436083942189475 -0.05141309497716398
  endloop
endfacet
facet normal 0.881418 -0.472337 5.16537e-05
  outer loop
    vertex 0.0246390057991889 -0.00998868907763757 -0.08306679542850111
    vertex 0.02999999999999999 1.62794134955634e-05 -0.07463155625891169
    vertex 0.02587157775504914 -0.007687175374485164 -0.06994130413101156
  endloop
endfacet
facet normal 0.881501 -0.472183 3.54092e-16
  outer loop
    vertex 0.0166091442313157 -0.0249817205865044 -0.121300686601784
    vertex 0.0166091442313157 -0.0249817205865044 -0.13456427980484
    vertex 0.02203292545221993 -0.01485626870721127 -0.127932483203312
  endloop
endfacet
facet normal 0.881514 -0.472157 0
  outer loop
    vertex 0.0166091442313157 -0.0249817205865044 -0.0549827205865044
    vertex 0.0166091442313157 -0.0249817205865044 -0.06824631378956031
    vertex 0.02203263159976629 -0.01485611130822543 -0.06161451718803237
  endloop
endfacet
facet normal 0.881524 -0.47214 -1.23501e-16
  outer loop
    vertex 0.0166091442313157 -0.0249817205865044 -0.06824631378956031
    vertex 0.0166091442313157 -0.0249817205865044 -0.08150990699261627
    vertex 0.0218445939182791 -0.01520671626584809 -0.07463445116180223
  endloop
endfacet
facet normal 0.843605 -0.52761 0.0997898
  outer loop
    vertex 0.02421678925778697 -0.008316387253171121 -0.03118317973672589
    vertex 0.02041296674455137 -0.01664905391983778 -0.04308295016161515
    vertex 0.0255657625332611 -0.008261122134361441 -0.04229495893236612
  endloop
endfacet
facet normal 0.881519 -0.472149 -1.69793e-05
  outer loop
    vertex 0.02203263159976629 -0.01485611130822543 -0.06161451718803237
    vertex 0.0166091442313157 -0.0249817205865044 -0.06824631378956031
    vertex 0.0218445939182791 -0.01520671626584809 -0.07463445116180223
  endloop
endfacet
facet normal 0.88149 -0.472202 0
  outer loop
    vertex 0.03 1.62794134955634e-05 -0.147827873007896
    vertex 0.03 1.62794134955634e-05 -0.1331886096580991
    vertex 0.02493481932137677 -0.00943922230898326 -0.1383082004404912
  endloop
endfacet
facet normal 0.881523 -0.472141 -1.06554e-05
  outer loop
    vertex 0.0166091442313157 -0.0249817205865044 -0.09477350019567217
    vertex 0.02315357651477654 -0.01276272097130212 -0.09688430988209906
    vertex 0.02026652128372405 -0.01815329743244837 -0.08690850490546845
  endloop
endfacet
facet normal 0.881494 -0.472196 7.87811e-06
  outer loop
    vertex 0.02330457211565787 -0.01248272058650439 -0.147827873007896
    vertex 0.03 1.62794134955634e-05 -0.147827873007896
    vertex 0.02493481932137677 -0.00943922230898326 -0.1383082004404912
  endloop
endfacet
facet normal 0.881521 -0.472145 8.9339e-06
  outer loop
    vertex 0.0218445939182791 -0.01520671626584809 -0.07463445116180223
    vertex 0.0166091442313157 -0.0249817205865044 -0.08150990699261627
    vertex 0.02026652128372405 -0.01815329743244837 -0.08690850490546845
  endloop
endfacet
facet normal 0.881546 -0.472098 -2.17378e-06
  outer loop
    vertex 0.0218445939182791 -0.01520671626584809 -0.07463445116180223
    vertex 0.0246390057991889 -0.00998868907763757 -0.08306679542850111
    vertex 0.02587157775504914 -0.007687175374485164 -0.06994130413101156
  endloop
endfacet
facet normal 0.881461 -0.472257 0
  outer loop
    vertex 0.03 1.62794134955634e-05 -0.05999229290911487
    vertex 0.03 1.62794134955634e-05 -0.04535302955931803
    vertex 0.02493574731318354 -0.009436083942189475 -0.05141309497716398
  endloop
endfacet
facet normal 0.881498 -0.472188 1.04849e-05
  outer loop
    vertex 0.02203292545221993 -0.01485626870721127 -0.127932483203312
    vertex 0.0166091442313157 -0.0249817205865044 -0.13456427980484
    vertex 0.02029362548357634 -0.01810350923814066 -0.1393926277632487
  endloop
endfacet
facet normal 0.881541 -0.472107 1.26259e-05
  outer loop
    vertex 0.02315357651477654 -0.01276272097130212 -0.09688430988209906
    vertex 0.0246390057991889 -0.00998868907763757 -0.08306679542850111
    vertex 0.02026652128372405 -0.01815329743244837 -0.08690850490546845
  endloop
endfacet
facet normal 0.881544 -0.472101 -4.60633e-06
  outer loop
    vertex 0.0246390057991889 -0.00998868907763757 -0.08306679542850111
    vertex 0.0218445939182791 -0.01520671626584809 -0.07463445116180223
    vertex 0.02026652128372405 -0.01815329743244837 -0.08690850490546845
  endloop
endfacet
facet normal 0.805711 -0.584656 0.0949057
  outer loop
    vertex 0.02421678925778697 -0.008316387253171121 -0.03118317973672589
    vertex 0.0255657625332611 -0.008261122134361441 -0.04229495893236612
    vertex 0.02826096764577628 -0.003229766804505001 -0.03418104661336612
  endloop
endfacet
facet normal 0.881496 -0.472192 1.17698e-05
  outer loop
    vertex 0.02493481932137677 -0.00943922230898326 -0.1383082004404912
    vertex 0.02203292545221993 -0.01485626870721127 -0.127932483203312
    vertex 0.02029362548357634 -0.01810350923814066 -0.1393926277632487
  endloop
endfacet
facet normal 0.881494 -0.472196 1.98053e-06
  outer loop
    vertex 0.0166091442313157 -0.0249817205865044 -0.147827873007896
    vertex 0.02330457211565787 -0.01248272058650439 -0.147827873007896
    vertex 0.02029362548357634 -0.01810350923814066 -0.1393926277632487
  endloop
endfacet
facet normal 0.881405 -0.472361 -2.08889e-16
  outer loop
    vertex 0.02999999999999999 1.62794134955634e-05 -0.07463155625891169
    vertex 0.03 1.62794134955634e-05 -0.05999229290911487
    vertex 0.02587157775504914 -0.007687175374485164 -0.06994130413101156
  endloop
endfacet
facet normal 0.881518 -0.472151 1.23504e-16
  outer loop
    vertex 0.0166091442313157 -0.0249817205865044 -0.08150990699261627
    vertex 0.0166091442313157 -0.0249817205865044 -0.09477350019567217
    vertex 0.02026652128372405 -0.01815329743244837 -0.08690850490546845
  endloop
endfacet
facet normal 0.881495 -0.472194 -2.30578e-16
  outer loop
    vertex 0.0166091442313157 -0.0249817205865044 -0.13456427980484
    vertex 0.0166091442313157 -0.0249817205865044 -0.147827873007896
    vertex 0.02029362548357634 -0.01810350923814066 -0.1393926277632487
  endloop
endfacet
facet normal 0.88155 -0.47209 -1.90173e-05
  outer loop
    vertex 0.02203263159976629 -0.01485611130822543 -0.06161451718803237
    vertex 0.0218445939182791 -0.01520671626584809 -0.07463445116180223
    vertex 0.02587157775504914 -0.007687175374485164 -0.06994130413101156
  endloop
endfacet
facet normal 0.802297 -0.591779 0.0782144
  outer loop
    vertex 0.02421678925778697 -0.008316387253171121 -0.03118317973672589
    vertex 0.02826096764577628 -0.003229766804505001 -0.03418104661336612
    vertex 0.02908603755556368 -0.00156226813005844 -0.0300278517091169
  endloop
endfacet
facet normal 0.881496 -0.472191 5.96597e-06
  outer loop
    vertex 0.02330457211565787 -0.01248272058650439 -0.147827873007896
    vertex 0.02493481932137677 -0.00943922230898326 -0.1383082004404912
    vertex 0.02029362548357634 -0.01810350923814066 -0.1393926277632487
  endloop
endfacet
facet normal 0.881485 -0.472212 9.9239e-06
  outer loop
    vertex 0.0255657625332611 -0.008261122134361441 -0.04229495893236612
    vertex 0.03 1.62794134955634e-05 -0.04535302955931803
    vertex 0.02826096764577628 -0.003229766804505001 -0.03418104661336612
  endloop
endfacet
facet normal 0.881475 -0.47223 -5.38387e-05
  outer loop
    vertex 0.02493574731318354 -0.009436083942189475 -0.05141309497716398
    vertex 0.03 1.62794134955634e-05 -0.04535302955931803
    vertex 0.0255657625332611 -0.008261122134361441 -0.04229495893236612
  endloop
endfacet
facet normal 0.851671 -0.524006 0.00867732
  outer loop
    vertex 0.02041296674455137 -0.01664905391983778 -0.04308295016161515
    vertex 0.02493574731318354 -0.009436083942189475 -0.05141309497716398
    vertex 0.0255657625332611 -0.008261122134361441 -0.04229495893236612
  endloop
endfacet
facet normal 0.881471 -0.472238 -2.08905e-16
  outer loop
    vertex 0.03 1.62794134955634e-05 -0.04535302955931803
    vertex 0.03 1.62794134955634e-05 -0.0307137662095212
    vertex 0.02826096764577628 -0.003229766804505001 -0.03418104661336612
  endloop
endfacet
facet normal 0.742298 -0.63677 0.208611
  outer loop
    vertex 0.0280206117710226 1.62794134955634e-05 -0.0192834093118366
    vertex 0.02421678925778697 -0.008316387253171121 -0.03118317973672589
    vertex 0.02950100297558269 1.62794134955634e-05 -0.02455107134982838
  endloop
endfacet
facet normal 0.797113 -0.593597 0.110694
  outer loop
    vertex 0.02950100297558269 1.62794134955634e-05 -0.02455107134982838
    vertex 0.02421678925778697 -0.008316387253171121 -0.03118317973672589
    vertex 0.02908603755556368 -0.00156226813005844 -0.0300278517091169
  endloop
endfacet
facet normal 0.881494 -0.472196 -5.07901e-05
  outer loop
    vertex 0.02999614236703635 9.077998553061536e-06 -0.03071376620958512
    vertex 0.0299922847340727 1.8765836105599e-06 -0.0307137662096491
    vertex 0.02826096764577628 -0.003229766804505001 -0.03418104661336612
  endloop
endfacet
facet normal 0.865519 -0.500875 0.00136101
  outer loop
    vertex 0.0299922847340727 1.8765836105599e-06 -0.0307137662096491
    vertex 0.02999718712929435 1.102835687048172e-05 -0.03046338076097401
    vertex 0.02908603755556368 -0.00156226813005844 -0.0300278517091169
  endloop
endfacet
facet normal 0.869726 -0.492895 0.0251171
  outer loop
    vertex 0.02826096764577628 -0.003229766804505001 -0.03418104661336612
    vertex 0.0299922847340727 1.8765836105599e-06 -0.0307137662096491
    vertex 0.02908603755556368 -0.00156226813005844 -0.0300278517091169
  endloop
endfacet
facet normal 0.881494 -0.472196 -5.07901e-05
  outer loop
    vertex 0.03 1.62794134955634e-05 -0.0307137662095212
    vertex 0.02999614236703635 9.077998553061536e-06 -0.03071376620958512
    vertex 0.02826096764577628 -0.003229766804505001 -0.03418104661336612
  endloop
endfacet
facet normal 0.86545 -0.500995 0.000783748
  outer loop
    vertex 0.02999718712929435 1.102835687048172e-05 -0.03046338076097401
    vertex 0.03 1.62794134955634e-05 -0.0302128509800842
    vertex 0.02908603755556368 -0.00156226813005844 -0.0300278517091169
  endloop
endfacet
facet normal 0.86541 -0.501064 2.82122e-14
  outer loop
    vertex 0.03 1.62794134955634e-05 -0.0302128509800842
    vertex 0.03 1.62794134955634e-05 -0.0301064254900421
    vertex 0.02908603755556368 -0.00156226813005844 -0.0300278517091169
  endloop
endfacet
facet normal 0.86541 -0.501064 -2.82122e-14
  outer loop
    vertex 0.03 1.62794134955634e-05 -0.0301064254900421
    vertex 0.03 1.62794134955634e-05 -0.03
    vertex 0.02908603755556368 -0.00156226813005844 -0.0300278517091169
  endloop
endfacet
facet normal 0.862105 -0.500542 0.078949
  outer loop
    vertex 0.03 1.62794134955634e-05 -0.03
    vertex 0.02950100297558269 1.62794134955634e-05 -0.02455107134982838
    vertex 0.02908603755556368 -0.00156226813005844 -0.0300278517091169
  endloop
endfacet
endsolid Created by Gmsh
