solid Created by Gmsh
facet normal 0.482202 -0.755385 0.443706
  outer loop
    vertex 0.0260648624118366 1.62794134955634e-05 -0.0151466183159516
    vertex 0.01696725085208257 1.580024601474297e-05 -0.005260523214988298
    vertex 0.01656369110479006 -0.005472401197856972 -0.01416530421787312
  endloop
endfacet
facet normal -0.495929 -0.816377 0.295943
  outer loop
    vertex -0.0204127782848394 -0.01664946676033025 -0.04308353973363081
    vertex -0.009378396076070277 -0.01945864773225274 -0.03234188252945595
    vertex -0.01621216667859831 -0.01387645415806375 -0.02839480905533537
  endloop
endfacet
facet normal 0.203417 -0.846814 0.491454
  outer loop
    vertex 5.422595739487889e-17 -0.0249817205865044 -0.0383908467803209
    vertex 0.01173833408641283 -0.0249817205865044 -0.04324944752147648
    vertex 0.01119367490337136 -0.01922197070024149 -0.03309950621564561
  endloop
endfacet
facet normal -0.610927 -0.645153 0.458854
  outer loop
    vertex -0.0204127782848394 -0.01664946676033025 -0.04308353973363081
    vertex -0.0117383340864128 -0.0249817205865044 -0.04324944752147645
    vertex -0.009378396076070277 -0.01945864773225274 -0.03234188252945595
  endloop
endfacet
facet normal 0.191885 -0.839668 0.508072
  outer loop
    vertex 0.003382330513048709 -0.01640543710134069 -0.02549462416582431
    vertex 5.422595739487889e-17 -0.0249817205865044 -0.0383908467803209
    vertex 0.01119367490337136 -0.01922197070024149 -0.03309950621564561
  endloop
endfacet
facet normal 0.607956 -0.728477 0.315771
  outer loop
    vertex 0.02041296674455137 -0.01664905391983778 -0.04308295016161515
    vertex 0.02421678925778697 -0.008316387253171121 -0.03118317973672589
    vertex 0.01641727079129038 -0.01315368665415268 -0.0273262666697342
  endloop
endfacet
facet normal -0.612933 -0.725797 0.312303
  outer loop
    vertex -0.02421641233836308 -0.008317212934156088 -0.03118435888075725
    vertex -0.0204127782848394 -0.01664946676033025 -0.04308353973363081
    vertex -0.01621216667859831 -0.01387645415806375 -0.02839480905533537
  endloop
endfacet
facet normal 0.618829 -0.72256 0.308152
  outer loop
    vertex 0.02421678925778697 -0.008316387253171121 -0.03118317973672589
    vertex 0.0280206117710226 1.62794134955634e-05 -0.0192834093118366
    vertex 0.02130162756181917 -0.00622752703983365 -0.02043098109490757
  endloop
endfacet
facet normal 0.663222 -0.695941 0.275322
  outer loop
    vertex 0.0166091442313157 -0.0249817205865044 -0.0549827205865044
    vertex 0.02041296674455137 -0.01664905391983778 -0.04308295016161515
    vertex 0.01173833408641283 -0.0249817205865044 -0.04324944752147648
  endloop
endfacet
facet normal -0.663222 -0.695941 0.275322
  outer loop
    vertex -0.0117383340864128 -0.0249817205865044 -0.04324944752147645
    vertex -0.0204127782848394 -0.01664946676033025 -0.04308353973363081
    vertex -0.0166091442313157 -0.0249817205865044 -0.0549827205865044
  endloop
endfacet
facet normal 0.275142 -0.851495 0.446378
  outer loop
    vertex 0.01110711110416852 -0.01012701012943677 -0.01827957276932568
    vertex 0.003382330513048709 -0.01640543710134069 -0.02549462416582431
    vertex 0.01641727079129038 -0.01315368665415268 -0.0273262666697342
  endloop
endfacet
facet normal 0.273454 -0.776055 0.568297
  outer loop
    vertex 0.003382330513048709 -0.01640543710134069 -0.02549462416582431
    vertex 0.01119367490337136 -0.01922197070024149 -0.03309950621564561
    vertex 0.01641727079129038 -0.01315368665415268 -0.0273262666697342
  endloop
endfacet
facet normal 0.148611 -0.846073 0.511933
  outer loop
    vertex 0.01110711110416852 -0.01012701012943677 -0.01827957276932568
    vertex 0.008476908809882321 -0.005269434768892842 -0.009487911273447657
    vertex 0.001417057246107409 -0.01144312977655054 -0.01764176288154533
  endloop
endfacet
facet normal 0.285001 -0.800343 0.52747
  outer loop
    vertex 0.01110711110416852 -0.01012701012943677 -0.01827957276932568
    vertex 0.01656369110479006 -0.005472401197856972 -0.01416530421787312
    vertex 0.008476908809882321 -0.005269434768892842 -0.009487911273447657
  endloop
endfacet
facet normal -0.144684 -0.819826 0.554033
  outer loop
    vertex -0.007149945281519327 -0.01306027440905144 -0.0212437514897546
    vertex -0.001503032732567159 -0.006683485051149844 -0.01033307026390892
    vertex -0.01217051965868775 -0.00526863409944176 -0.01102524229525218
  endloop
endfacet
facet normal 0.480435 -0.750532 0.453745
  outer loop
    vertex 0.0260648624118366 1.62794134955634e-05 -0.0151466183159516
    vertex 0.01656369110479006 -0.005472401197856972 -0.01416530421787312
    vertex 0.02130162756181917 -0.00622752703983365 -0.02043098109490757
  endloop
endfacet
facet normal -0.578835 -0.74326 0.335431
  outer loop
    vertex -0.0280200463918868 1.50408920180622e-05 -0.0192851780278837
    vertex -0.02421641233836308 -0.008317212934156088 -0.03118435888075725
    vertex -0.01859995966359285 -0.007168318002049368 -0.01894660497864911
  endloop
endfacet
facet normal -0.197227 -0.856768 0.476498
  outer loop
    vertex -0.0117383340864128 -0.0249817205865044 -0.04324944752147645
    vertex 5.422595739487889e-17 -0.0249817205865044 -0.0383908467803209
    vertex -0.009378396076070277 -0.01945864773225274 -0.03234188252945595
  endloop
endfacet
facet normal -0.0439809 -0.817619 0.574078
  outer loop
    vertex 0.004467852511393 1.550456444305941e-05 -0.0003347337324455987
    vertex -0.008927873463151478 1.529558637841402e-05 -0.001361295413942558
    vertex -0.001503032732567159 -0.006683485051149844 -0.01033307026390892
  endloop
endfacet
facet normal 0.627963 -0.661912 0.40931
  outer loop
    vertex 0.01173833408641283 -0.0249817205865044 -0.04324944752147648
    vertex 0.02041296674455137 -0.01664905391983778 -0.04308295016161515
    vertex 0.01119367490337136 -0.01922197070024149 -0.03309950621564561
  endloop
endfacet
facet normal -0.111354 -0.813789 0.570393
  outer loop
    vertex -0.009378396076070277 -0.01945864773225274 -0.03234188252945595
    vertex 5.422595739487889e-17 -0.0249817205865044 -0.0383908467803209
    vertex 0.003382330513048709 -0.01640543710134069 -0.02549462416582431
  endloop
endfacet
facet normal -0.569041 -0.728225 0.381942
  outer loop
    vertex -0.02053275433715792 1.513957253775339e-05 -0.008129945135248465
    vertex -0.0280200463918868 1.50408920180622e-05 -0.0192851780278837
    vertex -0.01859995966359285 -0.007168318002049368 -0.01894660497864911
  endloop
endfacet
facet normal -0.0674354 -0.858443 0.508456
  outer loop
    vertex -0.009378396076070277 -0.01945864773225274 -0.03234188252945595
    vertex 0.003382330513048709 -0.01640543710134069 -0.02549462416582431
    vertex -0.007149945281519327 -0.01306027440905144 -0.0212437514897546
  endloop
endfacet
facet normal 0.0689049 -0.823168 0.563602
  outer loop
    vertex 0.008476908809882321 -0.005269434768892842 -0.009487911273447657
    vertex -0.001503032732567159 -0.006683485051149844 -0.01033307026390892
    vertex 0.001417057246107409 -0.01144312977655054 -0.01764176288154533
  endloop
endfacet
facet normal -0.0617072 -0.84747 0.527244
  outer loop
    vertex -0.001503032732567159 -0.006683485051149844 -0.01033307026390892
    vertex -0.007149945281519327 -0.01306027440905144 -0.0212437514897546
    vertex 0.001417057246107409 -0.01144312977655054 -0.01764176288154533
  endloop
endfacet
facet normal -0.329672 -0.821826 0.46467
  outer loop
    vertex -0.01859995966359285 -0.007168318002049368 -0.01894660497864911
    vertex -0.007149945281519327 -0.01306027440905144 -0.0212437514897546
    vertex -0.01217051965868775 -0.00526863409944176 -0.01102524229525218
  endloop
endfacet
facet normal -0.613579 -0.708746 0.348137
  outer loop
    vertex -0.01859995966359285 -0.007168318002049368 -0.01894660497864911
    vertex -0.02421641233836308 -0.008317212934156088 -0.03118435888075725
    vertex -0.01621216667859831 -0.01387645415806375 -0.02839480905533537
  endloop
endfacet
facet normal 0.147731 -0.818973 0.554489
  outer loop
    vertex 0.003382330513048709 -0.01640543710134069 -0.02549462416582431
    vertex 0.01110711110416852 -0.01012701012943677 -0.01827957276932568
    vertex 0.001417057246107409 -0.01144312977655054 -0.01764176288154533
  endloop
endfacet
facet normal -0.145508 -0.846707 0.511776
  outer loop
    vertex -0.001503032732567159 -0.006683485051149844 -0.01033307026390892
    vertex -0.008927873463151478 1.529558637841402e-05 -0.001361295413942558
    vertex -0.01217051965868775 -0.00526863409944176 -0.01102524229525218
  endloop
endfacet
facet normal 0.0759407 -0.848747 0.523318
  outer loop
    vertex 0.004467852511393 1.550456444305941e-05 -0.0003347337324455987
    vertex -0.001503032732567159 -0.006683485051149844 -0.01033307026390892
    vertex 0.008476908809882321 -0.005269434768892842 -0.009487911273447657
  endloop
endfacet
facet normal 0.220018 -0.799963 0.558257
  outer loop
    vertex 0.01696725085208257 1.580024601474297e-05 -0.005260523214988298
    vertex 0.004467852511393 1.550456444305941e-05 -0.0003347337324455987
    vertex 0.008476908809882321 -0.005269434768892842 -0.009487911273447657
  endloop
endfacet
facet normal -0.0591939 -0.850503 0.522628
  outer loop
    vertex -0.007149945281519327 -0.01306027440905144 -0.0212437514897546
    vertex 0.003382330513048709 -0.01640543710134069 -0.02549462416582431
    vertex 0.001417057246107409 -0.01144312977655054 -0.01764176288154533
  endloop
endfacet
facet normal -0.311575 -0.785835 0.534215
  outer loop
    vertex -0.008927873463151478 1.529558637841402e-05 -0.001361295413942558
    vertex -0.02053275433715792 1.513957253775339e-05 -0.008129945135248465
    vertex -0.01217051965868775 -0.00526863409944176 -0.01102524229525218
  endloop
endfacet
facet normal -0.317248 -0.809273 0.4944
  outer loop
    vertex -0.007149945281519327 -0.01306027440905144 -0.0212437514897546
    vertex -0.01859995966359285 -0.007168318002049368 -0.01894660497864911
    vertex -0.01621216667859831 -0.01387645415806375 -0.02839480905533537
  endloop
endfacet
facet normal 0.266673 -0.825826 0.496888
  outer loop
    vertex 0.01656369110479006 -0.005472401197856972 -0.01416530421787312
    vertex 0.01696725085208257 1.580024601474297e-05 -0.005260523214988298
    vertex 0.008476908809882321 -0.005269434768892842 -0.009487911273447657
  endloop
endfacet
facet normal -0.346503 -0.808776 0.475201
  outer loop
    vertex -0.02053275433715792 1.513957253775339e-05 -0.008129945135248465
    vertex -0.01859995966359285 -0.007168318002049368 -0.01894660497864911
    vertex -0.01217051965868775 -0.00526863409944176 -0.01102524229525218
  endloop
endfacet
facet normal -0.339777 -0.78366 0.520027
  outer loop
    vertex -0.009378396076070277 -0.01945864773225274 -0.03234188252945595
    vertex -0.007149945281519327 -0.01306027440905144 -0.0212437514897546
    vertex -0.01621216667859831 -0.01387645415806375 -0.02839480905533537
  endloop
endfacet
facet normal 0.399899 -0.823852 0.401682
  outer loop
    vertex 0.02130162756181917 -0.00622752703983365 -0.02043098109490757
    vertex 0.01656369110479006 -0.005472401197856972 -0.01416530421787312
    vertex 0.01110711110416852 -0.01012701012943677 -0.01827957276932568
  endloop
endfacet
facet normal 0.399643 -0.772741 0.493109
  outer loop
    vertex 0.02130162756181917 -0.00622752703983365 -0.02043098109490757
    vertex 0.01110711110416852 -0.01012701012943677 -0.01827957276932568
    vertex 0.01641727079129038 -0.01315368665415268 -0.0273262666697342
  endloop
endfacet
facet normal 0.606613 -0.733355 0.306937
  outer loop
    vertex 0.02421678925778697 -0.008316387253171121 -0.03118317973672589
    vertex 0.02130162756181917 -0.00622752703983365 -0.02043098109490757
    vertex 0.01641727079129038 -0.01315368665415268 -0.0273262666697342
  endloop
endfacet
facet normal 0.606494 -0.729773 0.31559
  outer loop
    vertex 0.02712172356860994 1.62794134955634e-05 -0.01717767140228001
    vertex 0.0260648624118366 1.62794134955634e-05 -0.0151466183159516
    vertex 0.02130162756181917 -0.00622752703983365 -0.02043098109490757
  endloop
endfacet
facet normal 0.630537 -0.727994 0.269161
  outer loop
    vertex 0.0280206117710226 1.62794134955634e-05 -0.0192834093118366
    vertex 0.02712172356860994 1.62794134955634e-05 -0.01717767140228001
    vertex 0.02130162756181917 -0.00622752703983365 -0.02043098109490757
  endloop
endfacet
facet normal 0.553109 -0.77262 0.311655
  outer loop
    vertex 0.01119367490337136 -0.01922197070024149 -0.03309950621564561
    vertex 0.02041296674455137 -0.01664905391983778 -0.04308295016161515
    vertex 0.01641727079129038 -0.01315368665415268 -0.0273262666697342
  endloop
endfacet
facet normal -0.881516 -0.472154 -1.23505e-16
  outer loop
    vertex -0.0166091442313157 -0.0249817205865044 -0.1213006866017841
    vertex -0.0166091442313157 -0.0249817205865044 -0.1080370933987282
    vertex -0.0238327137106638 -0.01149525764886063 -0.108989389073341
  endloop
endfacet
facet normal -0.881506 -0.472172 2.56517e-05
  outer loop
    vertex -0.0166091442313157 -0.0249817205865044 -0.1213006866017841
    vertex -0.0238327137106638 -0.01149525764886063 -0.108989389073341
    vertex -0.02530536528966119 -0.008746601028056545 -0.1211287645688543
  endloop
endfacet
facet normal -0.881506 -0.472172 1.86945e-05
  outer loop
    vertex -0.02170735166669796 -0.01546413179231558 -0.1297712359084326
    vertex -0.0166091442313157 -0.0249817205865044 -0.1213006866017841
    vertex -0.02530536528966119 -0.008746601028056545 -0.1211287645688543
  endloop
endfacet
facet normal -0.881514 -0.472159 -2.31334e-06
  outer loop
    vertex -0.02203263159976638 -0.01485611130822528 -0.06161451718803242
    vertex -0.0166091442313157 -0.0249817205865044 -0.0549827205865044
    vertex -0.02493574864833761 -0.009436081441394312 -0.05141315294107481
  endloop
endfacet
facet normal -0.874465 -0.481641 0.0577359
  outer loop
    vertex -0.0166091442313157 -0.0249817205865044 -0.0549827205865044
    vertex -0.0204127782848394 -0.01664946676033025 -0.04308353973363081
    vertex -0.02493574864833761 -0.009436081441394312 -0.05141315294107481
  endloop
endfacet
facet normal -0.80802 -0.586818 0.0524195
  outer loop
    vertex -0.02421641233836308 -0.008317212934156088 -0.03118435888075725
    vertex -0.02919284056740093 -0.001271297053813388 -0.02901686855064712
    vertex -0.02869650270118834 -0.002416679483729745 -0.03418823225732093
  endloop
endfacet
facet normal -0.881485 -0.472212 2.55484e-05
  outer loop
    vertex -0.03 1.62794134955634e-05 -0.1331886095643492
    vertex -0.02498742154983114 -0.009340999324163213 -0.1375559418027909
    vertex -0.02530536528966119 -0.008746601028056545 -0.1211287645688543
  endloop
endfacet
facet normal -0.881486 -0.47221 -0.000144135
  outer loop
    vertex -0.02203263159976638 -0.01485611130822528 -0.06161451718803242
    vertex -0.03 1.62794134955634e-05 -0.05999229234661477
    vertex -0.02561883159661642 -0.008159122474754279 -0.06993468090425405
  endloop
endfacet
facet normal -0.881438 -0.4723 2.7486e-05
  outer loop
    vertex -0.0249519190497775 -0.009404397615244281 -0.08275451594582434
    vertex -0.03 1.62794134955634e-05 -0.08927081923370864
    vertex -0.02463202139068051 -0.01000216122391779 -0.09563921900895772
  endloop
endfacet
facet normal -0.881503 -0.472178 2.3931e-05
  outer loop
    vertex -0.02498742154983114 -0.009340999324163213 -0.1375559418027909
    vertex -0.02170735166669796 -0.01546413179231558 -0.1297712359084326
    vertex -0.02530536528966119 -0.008746601028056545 -0.1211287645688543
  endloop
endfacet
facet normal -0.881478 -0.472226 4.36873e-05
  outer loop
    vertex -0.03 1.62794134955634e-05 -0.05999229234661477
    vertex -0.02203263159976638 -0.01485611130822528 -0.06161451718803242
    vertex -0.02493574864833761 -0.009436081441394312 -0.05141315294107481
  endloop
endfacet
facet normal -0.88146 -0.472259 4.27956e-05
  outer loop
    vertex -0.03 1.62794134955634e-05 -0.1039100826772555
    vertex -0.0238327137106638 -0.01149525764886063 -0.108989389073341
    vertex -0.02463202139068051 -0.01000216122391779 -0.09563921900895772
  endloop
endfacet
facet normal -0.881516 -0.472155 -4.09928e-06
  outer loop
    vertex -0.0238327137106638 -0.01149525764886063 -0.108989389073341
    vertex -0.0166091442313157 -0.0249817205865044 -0.1080370933987282
    vertex -0.02007000819351048 -0.01852033264518051 -0.1000611348496972
  endloop
endfacet
facet normal -0.881467 -0.472245 -0
  outer loop
    vertex -0.03 1.62794134955634e-05 -0.1039100826772555
    vertex -0.03 1.62794134955634e-05 -0.1185493461208023
    vertex -0.0238327137106638 -0.01149525764886063 -0.108989389073341
  endloop
endfacet
facet normal -0.88143 -0.472315 -0
  outer loop
    vertex -0.03 1.62794134955634e-05 -0.0746315557901617
    vertex -0.03 1.62794134955634e-05 -0.08927081923370864
    vertex -0.0249519190497775 -0.009404397615244281 -0.08275451594582434
  endloop
endfacet
facet normal -0.881445 -0.472287 -0
  outer loop
    vertex -0.03 1.62794134955634e-05 -0.08927081923370864
    vertex -0.03 1.62794134955634e-05 -0.1039100826772555
    vertex -0.02463202139068051 -0.01000216122391779 -0.09563921900895772
  endloop
endfacet
facet normal -0.852937 -0.513226 0.0953796
  outer loop
    vertex -0.02942355792638189 1.500853335932763e-05 -0.02415861742541404
    vertex -0.02998851710207648 1.72794134955634e-05 -0.02919857343845938
    vertex -0.02919284056740093 -0.001271297053813388 -0.02901686855064712
  endloop
endfacet
facet normal -0.881499 -0.472185 1.23513e-16
  outer loop
    vertex -0.0166091442313157 -0.0249817205865044 -0.1345642798048401
    vertex -0.0166091442313157 -0.0249817205865044 -0.1213006866017841
    vertex -0.02170735166669796 -0.01546413179231558 -0.1297712359084326
  endloop
endfacet
facet normal -0.881514 -0.472157 0
  outer loop
    vertex -0.0166091442313157 -0.0249817205865044 -0.06824631378956042
    vertex -0.0166091442313157 -0.0249817205865044 -0.0549827205865044
    vertex -0.02203263159976638 -0.01485611130822528 -0.06161451718803242
  endloop
endfacet
facet normal -0.843611 -0.527602 0.0997823
  outer loop
    vertex -0.0204127782848394 -0.01664946676033025 -0.04308353973363081
    vertex -0.02421641233836308 -0.008317212934156088 -0.03118435888075725
    vertex -0.02556557616369357 -0.008261469916021957 -0.04229614068452818
  endloop
endfacet
facet normal -0.881524 -0.47214 1.23501e-16
  outer loop
    vertex -0.0166091442313157 -0.02498172058650441 -0.0815099069926164
    vertex -0.0166091442313157 -0.0249817205865044 -0.06824631378956042
    vertex -0.02189068095549889 -0.0151206533758152 -0.07487811039108842
  endloop
endfacet
facet normal -0.881519 -0.472149 -1.72662e-05
  outer loop
    vertex -0.0166091442313157 -0.0249817205865044 -0.06824631378956042
    vertex -0.02203263159976638 -0.01485611130822528 -0.06161451718803242
    vertex -0.02189068095549889 -0.0151206533758152 -0.07487811039108842
  endloop
endfacet
facet normal -0.88147 -0.47224 -0
  outer loop
    vertex -0.03 1.62794134955634e-05 -0.1185493461208023
    vertex -0.03 1.62794134955634e-05 -0.1331886095643492
    vertex -0.02530536528966119 -0.008746601028056545 -0.1211287645688543
  endloop
endfacet
facet normal -0.88149 -0.472203 -0
  outer loop
    vertex -0.03 1.62794134955634e-05 -0.1331886095643492
    vertex -0.03 1.62794134955634e-05 -0.147827873007896
    vertex -0.02498742154983114 -0.009340999324163213 -0.1375559418027909
  endloop
endfacet
facet normal -0.881494 -0.472196 8.466e-06
  outer loop
    vertex -0.03 1.62794134955634e-05 -0.147827873007896
    vertex -0.02330457211565787 -0.01248272058650439 -0.147827873007896
    vertex -0.02498742154983114 -0.009340999324163213 -0.1375559418027909
  endloop
endfacet
facet normal -0.88142 -0.472334 2.77355e-05
  outer loop
    vertex -0.03 1.62794134955634e-05 -0.0746315557901617
    vertex -0.0249519190497775 -0.009404397615244281 -0.08275451594582434
    vertex -0.02561883159661642 -0.008159122474754279 -0.06993468090425405
  endloop
endfacet
facet normal -0.881461 -0.472257 -0
  outer loop
    vertex -0.03 1.62794134955634e-05 -0.04535302890306783
    vertex -0.03 1.62794134955634e-05 -0.05999229234661477
    vertex -0.02493574864833761 -0.009436081441394312 -0.05141315294107481
  endloop
endfacet
facet normal -0.881539 -0.472111 1.6166e-05
  outer loop
    vertex -0.0249519190497775 -0.009404397615244281 -0.08275451594582434
    vertex -0.02463202139068051 -0.01000216122391779 -0.09563921900895772
    vertex -0.02041384642962733 -0.01787821732348151 -0.08847059243520911
  endloop
endfacet
facet normal -0.881497 -0.472189 8.5732e-06
  outer loop
    vertex -0.0166091442313157 -0.0249817205865044 -0.1345642798048401
    vertex -0.02170735166669796 -0.01546413179231558 -0.1297712359084326
    vertex -0.02016793673512568 -0.01833815469359312 -0.1403647979574033
  endloop
endfacet
facet normal -0.881531 -0.472127 2.37487e-05
  outer loop
    vertex -0.02463202139068051 -0.01000216122391779 -0.09563921900895772
    vertex -0.0238327137106638 -0.01149525764886063 -0.108989389073341
    vertex -0.02007000819351048 -0.01852033264518051 -0.1000611348496972
  endloop
endfacet
facet normal -0.881522 -0.472144 7.69761e-06
  outer loop
    vertex -0.0166091442313157 -0.02498172058650441 -0.0815099069926164
    vertex -0.02189068095549889 -0.0151206533758152 -0.07487811039108842
    vertex -0.02041384642962733 -0.01787821732348151 -0.08847059243520911
  endloop
endfacet
facet normal -0.815724 -0.570389 0.0961817
  outer loop
    vertex -0.02556557616369357 -0.008261469916021957 -0.04229614068452818
    vertex -0.02421641233836308 -0.008317212934156088 -0.03118435888075725
    vertex -0.02869650270118834 -0.002416679483729745 -0.03418823225732093
  endloop
endfacet
facet normal -0.881413 -0.472346 -0
  outer loop
    vertex -0.03 1.62794134955634e-05 -0.05999229234661477
    vertex -0.03 1.62794134955634e-05 -0.0746315557901617
    vertex -0.02561883159661642 -0.008159122474754279 -0.06993468090425405
  endloop
endfacet
facet normal -0.881494 -0.472196 1.59538e-06
  outer loop
    vertex -0.02330457211565787 -0.01248272058650439 -0.147827873007896
    vertex -0.0166091442313157 -0.0249817205865044 -0.147827873007896
    vertex -0.02016793673512568 -0.01833815469359312 -0.1403647979574033
  endloop
endfacet
facet normal -0.881496 -0.472192 9.64372e-06
  outer loop
    vertex -0.02170735166669796 -0.01546413179231558 -0.1297712359084326
    vertex -0.02498742154983114 -0.009340999324163213 -0.1375559418027909
    vertex -0.02016793673512568 -0.01833815469359312 -0.1403647979574033
  endloop
endfacet
facet normal -0.881469 -0.472241 5.67837e-06
  outer loop
    vertex -0.0238327137106638 -0.01149525764886063 -0.108989389073341
    vertex -0.03 1.62794134955634e-05 -0.1185493461208023
    vertex -0.02530536528966119 -0.008746601028056545 -0.1211287645688543
  endloop
endfacet
facet normal -0.881546 -0.472098 -1.68681e-06
  outer loop
    vertex -0.0249519190497775 -0.009404397615244281 -0.08275451594582434
    vertex -0.02189068095549889 -0.0151206533758152 -0.07487811039108842
    vertex -0.02561883159661642 -0.008159122474754279 -0.06993468090425405
  endloop
endfacet
facet normal -0.881535 -0.472119 4.27972e-06
  outer loop
    vertex -0.02041384642962733 -0.01787821732348151 -0.08847059243520911
    vertex -0.02463202139068051 -0.01000216122391779 -0.09563921900895772
    vertex -0.02007000819351048 -0.01852033264518051 -0.1000611348496972
  endloop
endfacet
facet normal -0.881519 -0.472149 -1.23503e-16
  outer loop
    vertex -0.0166091442313157 -0.0249817205865044 -0.09477350019567234
    vertex -0.0166091442313157 -0.02498172058650441 -0.0815099069926164
    vertex -0.02041384642962733 -0.01787821732348151 -0.08847059243520911
  endloop
endfacet
facet normal -0.881545 -0.4721 -3.58285e-06
  outer loop
    vertex -0.02189068095549889 -0.0151206533758152 -0.07487811039108842
    vertex -0.0249519190497775 -0.009404397615244281 -0.08275451594582434
    vertex -0.02041384642962733 -0.01787821732348151 -0.08847059243520911
  endloop
endfacet
facet normal -0.881514 -0.472158 0
  outer loop
    vertex -0.0166091442313157 -0.0249817205865044 -0.1080370933987282
    vertex -0.0166091442313157 -0.0249817205865044 -0.09477350019567234
    vertex -0.02007000819351048 -0.01852033264518051 -0.1000611348496972
  endloop
endfacet
facet normal -0.881494 -0.472195 0
  outer loop
    vertex -0.0166091442313157 -0.0249817205865044 -0.147827873007896
    vertex -0.0166091442313157 -0.0249817205865044 -0.1345642798048401
    vertex -0.02016793673512568 -0.01833815469359312 -0.1403647979574033
  endloop
endfacet
facet normal -0.881516 -0.472154 6.77348e-06
  outer loop
    vertex -0.0166091442313157 -0.0249817205865044 -0.09477350019567234
    vertex -0.02041384642962733 -0.01787821732348151 -0.08847059243520911
    vertex -0.02007000819351048 -0.01852033264518051 -0.1000611348496972
  endloop
endfacet
facet normal -0.881551 -0.472089 -1.87987e-05
  outer loop
    vertex -0.02189068095549889 -0.0151206533758152 -0.07487811039108842
    vertex -0.02203263159976638 -0.01485611130822528 -0.06161451718803242
    vertex -0.02561883159661642 -0.008159122474754279 -0.06993468090425405
  endloop
endfacet
facet normal -0.881486 -0.472211 1.29965e-05
  outer loop
    vertex -0.03 1.62794134955634e-05 -0.04535302890306783
    vertex -0.02556557616369357 -0.008261469916021957 -0.04229614068452818
    vertex -0.02869650270118834 -0.002416679483729745 -0.03418823225732093
  endloop
endfacet
facet normal -0.881496 -0.472191 6.5389e-06
  outer loop
    vertex -0.02498742154983114 -0.009340999324163213 -0.1375559418027909
    vertex -0.02330457211565787 -0.01248272058650439 -0.147827873007896
    vertex -0.02016793673512568 -0.01833815469359312 -0.1403647979574033
  endloop
endfacet
facet normal -0.881475 -0.47223 -5.38408e-05
  outer loop
    vertex -0.03 1.62794134955634e-05 -0.04535302890306783
    vertex -0.02493574864833761 -0.009436081441394312 -0.05141315294107481
    vertex -0.02556557616369357 -0.008261469916021957 -0.04229614068452818
  endloop
endfacet
facet normal -0.851673 -0.524002 0.00867521
  outer loop
    vertex -0.02493574864833761 -0.009436081441394312 -0.05141315294107481
    vertex -0.0204127782848394 -0.01664946676033025 -0.04308353973363081
    vertex -0.02556557616369357 -0.008261469916021957 -0.04229614068452818
  endloop
endfacet
facet normal -0.609878 -0.772785 0.175645
  outer loop
    vertex -0.0280200463918868 1.50408920180622e-05 -0.0192851780278837
    vertex -0.02942355792638189 1.500853335932763e-05 -0.02415861742541404
    vertex -0.02919284056740093 -0.001271297053813388 -0.02901686855064712
  endloop
endfacet
facet normal -0.851935 -0.523276 0.0197238
  outer loop
    vertex -0.02998851710207648 1.72794134955634e-05 -0.02919857343845938
    vertex -0.02999857193331179 1.872941960404675e-05 -0.02959440568241698
    vertex -0.02919284056740093 -0.001271297053813388 -0.02901686855064712
  endloop
endfacet
facet normal -0.778471 -0.603211 0.173548
  outer loop
    vertex -0.02421641233836308 -0.008317212934156088 -0.03118435888075725
    vertex -0.0280200463918868 1.50408920180622e-05 -0.0192851780278837
    vertex -0.02919284056740093 -0.001271297053813388 -0.02901686855064712
  endloop
endfacet
facet normal -0.881461 -0.472257 -0
  outer loop
    vertex -0.03 1.62794134955634e-05 -0.0307137654595209
    vertex -0.03 1.62794134955634e-05 -0.04535302890306783
    vertex -0.02869650270118834 -0.002416679483729745 -0.03418823225732093
  endloop
endfacet
facet normal -0.881494 -0.472196 -5.50464e-05
  outer loop
    vertex -0.0299956397456173 8.139706747781481e-06 -0.03071376545936475
    vertex -0.03 1.62794134955634e-05 -0.0307137654595209
    vertex -0.02869650270118834 -0.002416679483729745 -0.03418823225732093
  endloop
endfacet
facet normal -0.881494 -0.472196 -5.50464e-05
  outer loop
    vertex -0.0299912794912346 4.88168161742013e-19 -0.0307137654592086
    vertex -0.0299956397456173 8.139706747781481e-06 -0.03071376545936475
    vertex -0.02869650270118834 -0.002416679483729745 -0.03418823225732093
  endloop
endfacet
facet normal -0.846835 -0.531855 5.03186e-15
  outer loop
    vertex -0.0299912794912346 5.855188257516639e-19 -0.03070347572079575
    vertex -0.0299912794912346 4.88168161742013e-19 -0.0307137654592086
    vertex -0.02919284056740093 -0.001271297053813388 -0.02901686855064712
  endloop
endfacet
facet normal -0.863314 -0.503849 0.028736
  outer loop
    vertex -0.02919284056740093 -0.001271297053813388 -0.02901686855064712
    vertex -0.0299912794912346 4.88168161742013e-19 -0.0307137654592086
    vertex -0.02869650270118834 -0.002416679483729745 -0.03418823225732093
  endloop
endfacet
facet normal -0.846835 -0.531855 4.92897e-15
  outer loop
    vertex -0.0299912794912346 6.80878964320895e-19 -0.0306931859823829
    vertex -0.0299912794912346 5.855188257516639e-19 -0.03070347572079575
    vertex -0.02919284056740093 -0.001271297053813388 -0.02901686855064712
  endloop
endfacet
facet normal -0.848454 -0.529262 0.00273772
  outer loop
    vertex -0.02999738034274496 1.159746572605464e-05 -0.03034186927491261
    vertex -0.0299912794912346 6.80878964320895e-19 -0.0306931859823829
    vertex -0.02919284056740093 -0.001271297053813388 -0.02901686855064712
  endloop
endfacet
facet normal -0.848374 -0.529391 0.00256438
  outer loop
    vertex -0.02999986344454833 1.727944127597625e-05 -0.02999036599996418
    vertex -0.02999738034274496 1.159746572605464e-05 -0.03034186927491261
    vertex -0.02919284056740093 -0.001271297053813388 -0.02901686855064712
  endloop
endfacet
facet normal -0.849092 -0.528224 0.00470382
  outer loop
    vertex -0.02999857193331179 1.872941960404675e-05 -0.02959440568241698
    vertex -0.02999986344454833 1.727944127597625e-05 -0.02999036599996418
    vertex -0.02919284056740093 -0.001271297053813388 -0.02901686855064712
  endloop
endfacet
facet normal 0.881489 -0.472205 0
  outer loop
    vertex 0.03 1.62794134955634e-05 -0.1331886096580991
    vertex 0.03 1.62794134955634e-05 -0.1185493463083022
    vertex 0.02203292545221993 -0.01485626870721127 -0.127932483203312
  endloop
endfacet
facet normal 0.881481 -0.472219 2.96646e-05
  outer loop
    vertex 0.02203292545221993 -0.01485626870721127 -0.127932483203312
    vertex 0.03 1.62794134955634e-05 -0.1185493463083022
    vertex 0.02318776935262544 -0.01269957630617171 -0.1124708232186736
  endloop
endfacet
facet normal 0.881524 -0.47214 1.23501e-16
  outer loop
    vertex 0.0166091442313157 -0.0249817205865044 -0.09477350019567217
    vertex 0.0166091442313157 -0.02498172058650441 -0.1080370933987281
    vertex 0.02315357651477654 -0.01276272097130212 -0.09688430988209906
  endloop
endfacet
facet normal 0.881516 -0.472154 2.10113e-05
  outer loop
    vertex 0.0166091442313157 -0.02498172058650441 -0.1080370933987281
    vertex 0.02318776935262544 -0.01269957630617171 -0.1124708232186736
    vertex 0.02315357651477654 -0.01276272097130212 -0.09688430988209906
  endloop
endfacet
facet normal 0.881514 -0.472159 -2.31361e-06
  outer loop
    vertex 0.0166091442313157 -0.0249817205865044 -0.0549827205865044
    vertex 0.02203263159976629 -0.01485611130822543 -0.06161451718803237
    vertex 0.02493574731318354 -0.009436083942189475 -0.05141309497716398
  endloop
endfacet
facet normal 0.881506 -0.472172 2.12118e-05
  outer loop
    vertex 0.0166091442313157 -0.0249817205865044 -0.121300686601784
    vertex 0.02203292545221993 -0.01485626870721127 -0.127932483203312
    vertex 0.02318776935262544 -0.01269957630617171 -0.1124708232186736
  endloop
endfacet
facet normal 0.881513 -0.47216 -2.47012e-16
  outer loop
    vertex 0.0166091442313157 -0.02498172058650441 -0.1080370933987281
    vertex 0.0166091442313157 -0.0249817205865044 -0.121300686601784
    vertex 0.02318776935262544 -0.01269957630617171 -0.1124708232186736
  endloop
endfacet
facet normal 0.881469 -0.472241 2.05587e-05
  outer loop
    vertex 0.02318776935262544 -0.01269957630617171 -0.1124708232186736
    vertex 0.03 1.62794134955634e-05 -0.1039100829585054
    vertex 0.02315357651477654 -0.01276272097130212 -0.09688430988209906
  endloop
endfacet
facet normal 0.874465 -0.481641 0.057736
  outer loop
    vertex 0.02041296674455137 -0.01664905391983778 -0.04308295016161515
    vertex 0.0166091442313157 -0.0249817205865044 -0.0549827205865044
    vertex 0.02493574731318354 -0.009436083942189475 -0.05141309497716398
  endloop
endfacet
facet normal 0.881489 -0.472204 3.8087e-06
  outer loop
    vertex 0.03 1.62794134955634e-05 -0.1331886096580991
    vertex 0.02203292545221993 -0.01485626870721127 -0.127932483203312
    vertex 0.02493481932137677 -0.00943922230898326 -0.1383082004404912
  endloop
endfacet
facet normal 0.881475 -0.47223 0
  outer loop
    vertex 0.03 1.62794134955634e-05 -0.1185493463083022
    vertex 0.03 1.62794134955634e-05 -0.1039100829585054
    vertex 0.02318776935262544 -0.01269957630617171 -0.1124708232186736
  endloop
endfacet
facet normal 0.881451 -0.472276 5.61104e-05
  outer loop
    vertex 0.02315357651477654 -0.01276272097130212 -0.09688430988209906
    vertex 0.03 1.62794134955634e-05 -0.08927081960870856
    vertex 0.0246390057991889 -0.00998868907763757 -0.08306679542850111
  endloop
endfacet
facet normal 0.881465 -0.47225 0
  outer loop
    vertex 0.03 1.62794134955634e-05 -0.1039100829585054
    vertex 0.03 1.62794134955634e-05 -0.08927081960870856
    vertex 0.02315357651477654 -0.01276272097130212 -0.09688430988209906
  endloop
endfacet
facet normal 0.881436 -0.472303 4.17794e-16
  outer loop
    vertex 0.03 1.62794134955634e-05 -0.08927081960870856
    vertex 0.02999999999999999 1.62794134955634e-05 -0.07463155625891169
    vertex 0.0246390057991889 -0.00998868907763757 -0.08306679542850111
  endloop
endfacet
facet normal 0.881486 -0.472209 -0.000151263
  outer loop
    vertex 0.03 1.62794134955634e-05 -0.05999229290911487
    vertex 0.02203263159976629 -0.01485611130822543 -0.06161451718803237
    vertex 0.02587157775504914 -0.007687175374485164 -0.06994130413101156
  endloop
endfacet
facet normal 0.881478 -0.472226 4.36866e-05
  outer loop
    vertex 0.02203263159976629 -0.01485611130822543 -0.06161451718803237
    vertex 0.03 1.62794134955634e-05 -0.05999229290911487
    vertex 0.02493574731318354 -0.009436083942189475 -0.05141309497716398
  endloop
endfacet
facet normal 0.881418 -0.472337 5.16537e-05
  outer loop
    vertex 0.0246390057991889 -0.00998868907763757 -0.08306679542850111
    vertex 0.02999999999999999 1.62794134955634e-05 -0.07463155625891169
    vertex 0.02587157775504914 -0.007687175374485164 -0.06994130413101156
  endloop
endfacet
facet normal 0.881501 -0.472183 3.54092e-16
  outer loop
    vertex 0.0166091442313157 -0.0249817205865044 -0.121300686601784
    vertex 0.0166091442313157 -0.0249817205865044 -0.13456427980484
    vertex 0.02203292545221993 -0.01485626870721127 -0.127932483203312
  endloop
endfacet
facet normal 0.881514 -0.472157 0
  outer loop
    vertex 0.0166091442313157 -0.0249817205865044 -0.0549827205865044
    vertex 0.0166091442313157 -0.0249817205865044 -0.06824631378956031
    vertex 0.02203263159976629 -0.01485611130822543 -0.06161451718803237
  endloop
endfacet
facet normal 0.881524 -0.47214 -1.23501e-16
  outer loop
    vertex 0.0166091442313157 -0.0249817205865044 -0.06824631378956031
    vertex 0.0166091442313157 -0.0249817205865044 -0.08150990699261627
    vertex 0.0218445939182791 -0.01520671626584809 -0.07463445116180223
  endloop
endfacet
facet normal 0.843605 -0.52761 0.0997898
  outer loop
    vertex 0.02421678925778697 -0.008316387253171121 -0.03118317973672589
    vertex 0.02041296674455137 -0.01664905391983778 -0.04308295016161515
    vertex 0.0255657625332611 -0.008261122134361441 -0.04229495893236612
  endloop
endfacet
facet normal 0.881519 -0.472149 -1.69793e-05
  outer loop
    vertex 0.02203263159976629 -0.01485611130822543 -0.06161451718803237
    vertex 0.0166091442313157 -0.0249817205865044 -0.06824631378956031
    vertex 0.0218445939182791 -0.01520671626584809 -0.07463445116180223
  endloop
endfacet
facet normal 0.88149 -0.472202 0
  outer loop
    vertex 0.03 1.62794134955634e-05 -0.147827873007896
    vertex 0.03 1.62794134955634e-05 -0.1331886096580991
    vertex 0.02493481932137677 -0.00943922230898326 -0.1383082004404912
  endloop
endfacet
facet normal 0.881523 -0.472141 -1.06554e-05
  outer loop
    vertex 0.0166091442313157 -0.0249817205865044 -0.09477350019567217
    vertex 0.02315357651477654 -0.01276272097130212 -0.09688430988209906
    vertex 0.02026652128372405 -0.01815329743244837 -0.08690850490546845
  endloop
endfacet
facet normal 0.881494 -0.472196 7.87811e-06
  outer loop
    vertex 0.02330457211565787 -0.01248272058650439 -0.147827873007896
    vertex 0.03 1.62794134955634e-05 -0.147827873007896
    vertex 0.02493481932137677 -0.00943922230898326 -0.1383082004404912
  endloop
endfacet
facet normal 0.881521 -0.472145 8.9339e-06
  outer loop
    vertex 0.0218445939182791 -0.01520671626584809 -0.07463445116180223
    vertex 0.0166091442313157 -0.0249817205865044 -0.08150990699261627
    vertex 0.02026652128372405 -0.01815329743244837 -0.08690850490546845
  endloop
endfacet
facet normal 0.881546 -0.472098 -2.17378e-06
  outer loop
    vertex 0.0218445939182791 -0.01520671626584809 -0.07463445116180223
    vertex 0.0246390057991889 -0.00998868907763757 -0.08306679542850111
    vertex 0.02587157775504914 -0.007687175374485164 -0.06994130413101156
  endloop
endfacet
facet normal 0.881461 -0.472257 0
  outer loop
    vertex 0.03 1.62794134955634e-05 -0.05999229290911487
    vertex 0.03 1.62794134955634e-05 -0.04535302955931803
    vertex 0.02493574731318354 -0.009436083942189475 -0.05141309497716398
  endloop
endfacet
facet normal 0.881498 -0.472188 1.04849e-05
  outer loop
    vertex 0.02203292545221993 -0.01485626870721127 -0.127932483203312
    vertex 0.0166091442313157 -0.0249817205865044 -0.13456427980484
    vertex 0.02029362548357634 -0.01810350923814066 -0.1393926277632487
  endloop
endfacet
facet normal 0.881541 -0.472107 1.26259e-05
  outer loop
    vertex 0.02315357651477654 -0.01276272097130212 -0.09688430988209906
    vertex 0.0246390057991889 -0.00998868907763757 -0.08306679542850111
    vertex 0.02026652128372405 -0.01815329743244837 -0.08690850490546845
  endloop
endfacet
facet normal 0.881544 -0.472101 -4.60633e-06
  outer loop
    vertex 0.0246390057991889 -0.00998868907763757 -0.08306679542850111
    vertex 0.0218445939182791 -0.01520671626584809 -0.07463445116180223
    vertex 0.02026652128372405 -0.01815329743244837 -0.08690850490546845
  endloop
endfacet
facet normal 0.805711 -0.584656 0.0949057
  outer loop
    vertex 0.02421678925778697 -0.008316387253171121 -0.03118317973672589
    vertex 0.0255657625332611 -0.008261122134361441 -0.04229495893236612
    vertex 0.02826096764577628 -0.003229766804505001 -0.03418104661336612
  endloop
endfacet
facet normal 0.881496 -0.472192 1.17698e-05
  outer loop
    vertex 0.02493481932137677 -0.00943922230898326 -0.1383082004404912
    vertex 0.02203292545221993 -0.01485626870721127 -0.127932483203312
    vertex 0.02029362548357634 -0.01810350923814066 -0.1393926277632487
  endloop
endfacet
facet normal 0.881494 -0.472196 1.98053e-06
  outer loop
    vertex 0.0166091442313157 -0.0249817205865044 -0.147827873007896
    vertex 0.02330457211565787 -0.01248272058650439 -0.147827873007896
    vertex 0.02029362548357634 -0.01810350923814066 -0.1393926277632487
  endloop
endfacet
facet normal 0.881405 -0.472361 -2.08889e-16
  outer loop
    vertex 0.02999999999999999 1.62794134955634e-05 -0.07463155625891169
    vertex 0.03 1.62794134955634e-05 -0.05999229290911487
    vertex 0.02587157775504914 -0.007687175374485164 -0.06994130413101156
  endloop
endfacet
facet normal 0.881518 -0.472151 1.23504e-16
  outer loop
    vertex 0.0166091442313157 -0.0249817205865044 -0.08150990699261627
    vertex 0.0166091442313157 -0.0249817205865044 -0.09477350019567217
    vertex 0.02026652128372405 -0.01815329743244837 -0.08690850490546845
  endloop
endfacet
facet normal 0.881495 -0.472194 -2.30578e-16
  outer loop
    vertex 0.0166091442313157 -0.0249817205865044 -0.13456427980484
    vertex 0.0166091442313157 -0.0249817205865044 -0.147827873007896
    vertex 0.02029362548357634 -0.01810350923814066 -0.1393926277632487
  endloop
endfacet
facet normal 0.88155 -0.47209 -1.90173e-05
  outer loop
    vertex 0.02203263159976629 -0.01485611130822543 -0.06161451718803237
    vertex 0.0218445939182791 -0.01520671626584809 -0.07463445116180223
    vertex 0.02587157775504914 -0.007687175374485164 -0.06994130413101156
  endloop
endfacet
facet normal 0.802297 -0.591779 0.0782144
  outer loop
    vertex 0.02421678925778697 -0.008316387253171121 -0.03118317973672589
    vertex 0.02826096764577628 -0.003229766804505001 -0.03418104661336612
    vertex 0.02908603755556368 -0.00156226813005844 -0.0300278517091169
  endloop
endfacet
facet normal 0.881496 -0.472191 5.96597e-06
  outer loop
    vertex 0.02330457211565787 -0.01248272058650439 -0.147827873007896
    vertex 0.02493481932137677 -0.00943922230898326 -0.1383082004404912
    vertex 0.02029362548357634 -0.01810350923814066 -0.1393926277632487
  endloop
endfacet
facet normal 0.881485 -0.472212 9.9239e-06
  outer loop
    vertex 0.0255657625332611 -0.008261122134361441 -0.04229495893236612
    vertex 0.03 1.62794134955634e-05 -0.04535302955931803
    vertex 0.02826096764577628 -0.003229766804505001 -0.03418104661336612
  endloop
endfacet
facet normal 0.881475 -0.47223 -5.38387e-05
  outer loop
    vertex 0.02493574731318354 -0.009436083942189475 -0.05141309497716398
    vertex 0.03 1.62794134955634e-05 -0.04535302955931803
    vertex 0.0255657625332611 -0.008261122134361441 -0.04229495893236612
  endloop
endfacet
facet normal 0.851671 -0.524006 0.00867732
  outer loop
    vertex 0.02041296674455137 -0.01664905391983778 -0.04308295016161515
    vertex 0.02493574731318354 -0.009436083942189475 -0.05141309497716398
    vertex 0.0255657625332611 -0.008261122134361441 -0.04229495893236612
  endloop
endfacet
facet normal 0.881471 -0.472238 -2.08905e-16
  outer loop
    vertex 0.03 1.62794134955634e-05 -0.04535302955931803
    vertex 0.03 1.62794134955634e-05 -0.0307137662095212
    vertex 0.02826096764577628 -0.003229766804505001 -0.03418104661336612
  endloop
endfacet
facet normal 0.742298 -0.63677 0.208611
  outer loop
    vertex 0.02950100297558269 1.62794134955634e-05 -0.02455107134982838
    vertex 0.0280206117710226 1.62794134955634e-05 -0.0192834093118366
    vertex 0.02421678925778697 -0.008316387253171121 -0.03118317973672589
  endloop
endfacet
facet normal 0.797113 -0.593597 0.110694
  outer loop
    vertex 0.02950100297558269 1.62794134955634e-05 -0.02455107134982838
    vertex 0.02421678925778697 -0.008316387253171121 -0.03118317973672589
    vertex 0.02908603755556368 -0.00156226813005844 -0.0300278517091169
  endloop
endfacet
facet normal 0.881494 -0.472196 -5.07901e-05
  outer loop
    vertex 0.02999614236703635 9.077998553061536e-06 -0.03071376620958512
    vertex 0.0299922847340727 1.8765836105599e-06 -0.0307137662096491
    vertex 0.02826096764577628 -0.003229766804505001 -0.03418104661336612
  endloop
endfacet
facet normal 0.865519 -0.500875 0.00136101
  outer loop
    vertex 0.0299922847340727 1.8765836105599e-06 -0.0307137662096491
    vertex 0.02999718712929435 1.102835687048172e-05 -0.03046338076097401
    vertex 0.02908603755556368 -0.00156226813005844 -0.0300278517091169
  endloop
endfacet
facet normal 0.869726 -0.492895 0.0251171
  outer loop
    vertex 0.02826096764577628 -0.003229766804505001 -0.03418104661336612
    vertex 0.0299922847340727 1.8765836105599e-06 -0.0307137662096491
    vertex 0.02908603755556368 -0.00156226813005844 -0.0300278517091169
  endloop
endfacet
facet normal 0.881494 -0.472196 -5.07901e-05
  outer loop
    vertex 0.03 1.62794134955634e-05 -0.0307137662095212
    vertex 0.02999614236703635 9.077998553061536e-06 -0.03071376620958512
    vertex 0.02826096764577628 -0.003229766804505001 -0.03418104661336612
  endloop
endfacet
facet normal 0.86545 -0.500995 0.000783748
  outer loop
    vertex 0.02999718712929435 1.102835687048172e-05 -0.03046338076097401
    vertex 0.03 1.62794134955634e-05 -0.0302128509800842
    vertex 0.02908603755556368 -0.00156226813005844 -0.0300278517091169
  endloop
endfacet
facet normal 0.86541 -0.501064 2.82122e-14
  outer loop
    vertex 0.03 1.62794134955634e-05 -0.0302128509800842
    vertex 0.03 1.62794134955634e-05 -0.0301064254900421
    vertex 0.02908603755556368 -0.00156226813005844 -0.0300278517091169
  endloop
endfacet
facet normal 0.86541 -0.501064 -2.82122e-14
  outer loop
    vertex 0.03 1.62794134955634e-05 -0.0301064254900421
    vertex 0.03 1.62794134955634e-05 -0.03
    vertex 0.02908603755556368 -0.00156226813005844 -0.0300278517091169
  endloop
endfacet
facet normal 0.862105 -0.500542 0.078949
  outer loop
    vertex 0.03 1.62794134955634e-05 -0.03
    vertex 0.02950100297558269 1.62794134955634e-05 -0.02455107134982838
    vertex 0.02908603755556368 -0.00156226813005844 -0.0300278517091169
  endloop
endfacet
endsolid Created by Gmsh
